<?xml version="1.0" standalone="no"?>
<!DOCTYPE svg PUBLIC "-//W3C//DTD SVG 20010904//EN"
 "http://www.w3.org/TR/2001/REC-SVG-20010904/DTD/svg10.dtd">
<svg version="1.0" xmlns="http://www.w3.org/2000/svg"
 width="90.000000pt" height="90.000000pt" viewBox="0 0 90.000000 90.000000"
 preserveAspectRatio="xMidYMid meet">
<metadata>
Created by potrace 1.10, written by Peter Selinger 2001-2011
</metadata>
<g transform="translate(0.000000,90.000000) scale(0.100000,-0.100000)"
fill="#ab4c82" stroke="none">
<path d="M335 860 c-83 -33 -153 -110 -179 -199 -11 -39 -16 -96 -16 -196 0
-130 2 -145 21 -169 l22 -28 176 4 c168 3 178 4 227 30 229 120 230 434 2 548
-52 25 -72 30 -132 29 -45 0 -89 -7 -121 -19z m133 -16 c7 -2 10 1 7 6 -3 6 0
10 9 10 8 0 13 -8 11 -17 -1 -11 -11 -18 -23 -17 -12 0 -19 -3 -16 -8 3 -4 -5
-8 -17 -8 -12 0 -19 -3 -16 -7 10 -9 -14 -34 -26 -26 -5 3 -7 2 -4 -4 3 -5 0
-20 -7 -34 -7 -13 -10 -31 -8 -38 3 -8 0 -11 -6 -7 -8 5 -10 -5 -6 -34 6 -39
5 -40 -24 -40 -16 0 -43 -7 -60 -16 -18 -8 -37 -12 -43 -8 -8 4 -9 3 -5 -4 4
-7 1 -12 -8 -12 -9 0 -16 -4 -16 -8 0 -5 -9 -19 -20 -32 l-20 -23 0 63 c0 57
1 61 17 49 15 -13 15 -12 3 7 -10 17 -9 27 10 65 39 77 104 133 167 142 12 2
26 6 29 10 6 6 37 2 72 -9z m72 0 c0 -8 -19 -13 -24 -6 -3 5 1 9 9 9 8 0 15
-2 15 -3z m48 -43 c8 -4 12 -19 10 -32 -2 -20 -10 -25 -45 -29 -61 -7 -83 -30
-83 -85 0 -25 -1 -48 -2 -52 -2 -5 17 -10 42 -13 33 -4 46 -10 48 -23 6 -28
-17 -47 -57 -47 -36 0 -37 -1 -33 -33 6 -48 -14 -110 -44 -141 -56 -55 -159
-59 -159 -6 0 20 6 26 30 28 76 7 105 38 105 112 0 40 0 40 -39 40 -44 0 -66
19 -56 50 5 16 15 20 51 20 l44 0 0 63 c0 77 26 121 90 149 22 10 83 9 98 -1z
m88 -87 c10 -26 14 -56 11 -73 -4 -18 -2 -33 5 -37 6 -4 8 -3 5 3 -4 6 2 22
13 34 l20 24 -2 -89 c-2 -81 -5 -93 -34 -140 -18 -28 -39 -51 -46 -51 -7 0
-13 -6 -13 -13 0 -20 -99 -69 -135 -67 -16 1 -30 -1 -30 -5 0 -5 -44 -6 -59
-1 -2 0 8 11 23 24 37 32 58 75 58 120 1 41 13 52 64 61 16 2 31 5 34 6 3 1 8
2 13 1 4 0 7 4 7 10 0 6 7 9 15 5 8 -3 14 0 12 7 -1 7 3 11 10 10 6 -2 15 6
18 17 4 11 11 20 16 20 6 0 7 4 4 10 -3 5 -22 -6 -41 -25 -42 -42 -79 -48 -64
-11 6 17 5 26 -3 29 -8 3 -5 12 9 28 31 34 36 60 19 92 -13 25 -12 28 5 39 14
9 16 16 9 31 -10 18 -9 18 15 2 14 -9 33 -36 42 -61z m-80 -31 c8 -31 -1 -52
-27 -62 -48 -17 -95 16 -72 51 4 7 8 16 9 21 1 4 2 9 3 12 0 3 19 5 41 3 33
-1 42 -6 46 -25z m-311 -117 c-14 -22 -14 -24 2 -30 15 -6 14 -10 -10 -32 -15
-14 -28 -29 -28 -34 -1 -6 -2 -16 -3 -22 -1 -7 4 -25 11 -40 13 -27 10 -33
-18 -30 -3 1 -4 -10 -1 -23 2 -15 0 -25 -7 -25 -6 0 -11 4 -11 8 0 5 -9 18
-20 30 -15 16 -21 38 -23 80 -2 48 2 61 23 86 22 25 71 54 93 56 4 0 0 -11 -8
-24z m58 -80 c-4 -6 1 -5 10 3 16 13 18 11 15 -24 -3 -44 -34 -71 -72 -61 -29
7 -39 47 -19 75 14 21 78 28 66 7z m-110 -189 c-3 -5 -8 -5 -12 1 -3 6 -15 10
-26 9 -16 -2 -20 5 -22 28 l-1 30 33 -29 c19 -17 31 -34 28 -39z"/>
<path d="M416 243 c-3 -3 -6 -26 -6 -49 0 -43 0 -43 -25 -32 -70 32 -126 -70
-69 -126 18 -19 65 -21 82 -4 9 9 12 9 12 0 0 -7 7 -12 15 -12 12 0 15 19 15
109 0 100 -6 131 -24 114z m-12 -135 c7 -19 6 -31 -4 -42 -17 -22 -57 -20 -70
3 -14 27 -13 37 6 56 24 23 57 15 68 -17z"/>
<path d="M56 224 c-9 -8 -16 -26 -16 -40 0 -15 -6 -24 -15 -24 -8 0 -15 -4
-15 -10 0 -5 7 -10 15 -10 12 0 15 -13 15 -60 0 -47 3 -60 15 -60 12 0 15 13
15 60 0 54 2 60 21 60 12 0 19 5 16 13 -2 6 -12 11 -21 9 -13 -2 -17 3 -14 20
2 15 11 24 26 26 12 2 22 10 22 18 0 19 -44 18 -64 -2z"/>
<path d="M146 149 c-53 -42 -21 -129 47 -129 38 0 73 22 63 38 -4 7 -14 6 -33
-3 -18 -9 -32 -11 -44 -4 -38 20 -30 29 24 29 29 0 56 3 60 6 3 3 1 19 -5 35
-18 51 -67 64 -112 28z m68 -15 c30 -12 16 -29 -24 -29 -42 -1 -48 3 -28 23
13 13 28 15 52 6z"/>
<path d="M496 149 c-54 -43 -23 -129 47 -129 57 0 90 57 63 108 -24 47 -66 55
-110 21z m79 -33 c13 -19 14 -29 5 -45 -20 -39 -80 -21 -80 24 0 47 49 60 75
21z"/>
<path d="M647 163 c-4 -3 -7 -37 -7 -75 0 -61 2 -69 18 -66 13 3 16 12 14 36
-4 40 21 82 48 82 11 0 20 7 20 15 0 18 -31 20 -49 3 -11 -10 -14 -10 -18 0
-5 13 -16 16 -26 5z"/>
<path d="M779 157 c-41 -31 -46 -80 -11 -119 17 -21 72 -24 90 -6 9 9 12 9 12
0 0 -7 5 -12 10 -12 6 0 10 25 10 55 0 42 -5 60 -20 75 -22 22 -67 26 -91 7z
m74 -38 c5 -9 7 -28 3 -43 -6 -24 -11 -27 -39 -24 -27 2 -33 8 -35 31 -2 16 2
35 9 43 15 18 48 15 62 -7z"/>
</g>
</svg>
