<?xml version="1.0" standalone="no"?>
<!DOCTYPE svg PUBLIC "-//W3C//DTD SVG 20010904//EN"
 "http://www.w3.org/TR/2001/REC-SVG-20010904/DTD/svg10.dtd">
<svg version="1.0" xmlns="http://www.w3.org/2000/svg"
 width="89.000000pt" height="85.000000pt" viewBox="0 0 89.000000 85.000000"
 preserveAspectRatio="xMidYMid meet">
<metadata>
Created by potrace 1.10, written by Peter Selinger 2001-2011
</metadata>
<g transform="translate(0.000000,85.000000) scale(0.100000,-0.100000)"
fill="#ab4c82" stroke="none">
<path d="M166 818 c-22 -12 -20 -55 4 -85 21 -27 27 -48 11 -38 -6 3 -10 -3
-10 -12 0 -10 -7 -43 -16 -73 -40 -136 27 -284 154 -342 151 -69 333 -5 402
141 28 58 30 168 6 224 -15 36 -15 43 -1 87 9 26 14 59 12 72 -2 19 -10 23
-45 26 -23 2 -54 -3 -69 -11 -25 -13 -32 -12 -71 5 -59 26 -173 21 -230 -10
-18 -10 -28 -10 -45 -1 -35 19 -84 27 -102 17z m97 -33 c24 -12 33 -11 74 7
37 16 60 19 117 16 70 -5 130 -24 121 -38 -2 -4 12 1 33 11 65 30 81 33 79 10
0 -11 -4 -18 -8 -15 -6 3 -22 -32 -21 -47 1 -3 -5 -6 -11 -6 -18 0 -67 -33
-67 -45 0 -6 8 -5 18 3 16 12 16 12 0 -6 -17 -18 -18 -18 -38 0 -30 27 -34 13
-5 -15 l25 -23 28 24 27 24 -23 -26 -23 -27 26 -6 c14 -4 35 -16 46 -27 l21
-21 -28 -20 c-16 -11 -21 -18 -12 -14 10 3 20 1 23 -5 8 -12 -4 -51 -14 -45
-4 3 -13 -9 -20 -25 -20 -45 -60 -68 -131 -73 -54 -4 -63 -2 -67 14 -3 13 -12
17 -28 14 -17 -3 -31 6 -54 32 -18 20 -30 41 -28 47 2 7 -2 17 -9 22 -37 28
53 102 109 89 25 -5 29 -3 24 9 -4 11 -2 14 9 10 7 -3 14 -10 14 -17 0 -6 5
-4 10 4 6 10 10 11 10 3 0 -7 8 -13 18 -13 14 0 15 2 2 10 -11 7 -12 10 -2 10
7 0 20 -6 27 -14 9 -8 24 -11 42 -8 l28 6 -35 7 c-19 3 -28 7 -20 8 12 1 11 4
-4 13 -11 6 -48 9 -90 6 -81 -6 -160 -40 -196 -85 -17 -21 -25 -25 -37 -17 -9
6 -19 16 -21 24 -3 8 0 10 7 6 6 -4 10 -4 9 1 -3 12 22 84 39 113 l15 25 -21
-21 c-12 -11 -32 -46 -45 -77 -12 -31 -26 -54 -29 -50 -13 13 5 -103 22 -143
25 -56 78 -114 125 -135 108 -48 278 9 332 114 23 43 6 32 -54 -34 -48 -53
-57 -59 -63 -43 -7 17 -8 17 -8 1 -1 -20 -34 -35 -89 -40 -41 -4 -76 9 -67 24
4 5 -3 9 -14 9 -14 0 -19 5 -15 14 4 10 -6 20 -28 31 -28 14 -30 14 -14 0 11
-8 24 -15 29 -15 5 0 6 -7 3 -15 -3 -9 1 -18 9 -21 8 -4 13 -10 10 -15 -10
-16 -111 76 -121 111 -6 22 -5 23 10 11 10 -9 16 -10 16 -2 0 6 -4 11 -8 11
-5 0 -17 7 -28 16 -10 8 -13 13 -7 9 9 -4 11 -1 7 9 -3 9 -10 16 -15 16 -13 0
-11 48 3 56 6 4 8 3 5 -3 -13 -20 44 0 58 20 13 19 15 20 15 3 0 -50 67 -137
127 -162 137 -59 306 61 271 193 -5 21 -10 46 -11 56 -1 16 -3 15 -18 -4 -10
-13 -19 -18 -23 -11 -3 6 -1 14 4 17 6 4 24 28 40 53 29 47 41 49 16 3 -11
-20 -10 -31 5 -72 48 -126 -8 -274 -129 -342 -46 -26 -65 -30 -130 -31 -61 0
-87 4 -124 23 -95 46 -158 148 -158 256 0 58 17 118 31 109 5 -3 6 2 3 11 -4
9 8 32 30 59 l36 44 -30 12 c-16 7 -35 19 -42 28 -11 13 -9 14 17 8 17 -4 42
-14 58 -21z m62 -195 c-3 -5 -12 -10 -18 -10 -7 0 -6 4 3 10 19 12 23 12 15 0z"/>
<path d="M460 780 c0 -4 8 -14 17 -21 9 -8 14 -9 10 -2 -4 6 -2 13 5 15 7 3 2
7 -10 10 -12 4 -22 3 -22 -2z"/>
<path d="M515 759 c-9 -13 3 -59 14 -59 5 0 7 9 4 20 -3 12 1 22 11 26 9 3 16
10 16 15 0 13 -37 11 -45 -2z"/>
<path d="M336 682 c-3 -5 1 -9 9 -9 8 0 12 4 9 9 -3 4 -7 8 -9 8 -2 0 -6 -4
-9 -8z"/>
<path d="M590 586 c14 -6 28 -14 31 -19 3 -4 13 -5 23 -1 16 6 16 7 -1 19 -10
7 -31 12 -48 12 l-30 0 25 -11z"/>
<path d="M573 550 c-13 -5 -23 -12 -23 -15 0 -9 16 -5 36 10 22 16 19 18 -13
5z"/>
<path d="M605 499 c-9 -17 -15 -39 -13 -49 2 -12 9 0 20 30 18 57 16 64 -7 19z"/>
<path d="M406 363 c-4 -9 -2 -21 4 -27 7 -7 10 -2 10 17 0 31 -5 34 -14 10z"/>
<path d="M491 324 c0 -11 3 -14 6 -6 3 7 2 16 -1 19 -3 4 -6 -2 -5 -13z"/>
<path d="M415 310 c3 -5 8 -10 11 -10 2 0 4 5 4 10 0 6 -5 10 -11 10 -5 0 -7
-4 -4 -10z"/>
<path d="M22 184 c-19 -13 -22 -24 -22 -90 0 -46 4 -74 11 -74 6 0 9 14 7 32
-3 29 0 33 22 36 39 6 49 22 13 22 -26 0 -43 14 -43 35 0 14 37 35 61 35 18 0
28 4 24 10 -9 15 -48 12 -73 -6z"/>
<path d="M517 188 c-12 -10 -17 -32 -18 -93 l-2 -80 46 -3 c36 -2 51 2 66 17
25 25 27 54 6 71 -9 7 -12 22 -9 40 9 45 -50 77 -89 48z m63 -23 c7 -8 10 -22
6 -30 -7 -20 -65 -20 -72 0 -8 19 13 45 36 45 10 0 23 -7 30 -15z m27 -81 c11
-28 -11 -49 -56 -52 -41 -3 -41 -3 -41 32 0 36 0 36 45 36 33 0 47 -5 52 -16z"/>
<path d="M643 183 c-7 -2 -13 -18 -13 -34 0 -23 7 -32 39 -49 49 -25 58 -38
38 -58 -13 -13 -21 -13 -41 -4 -14 6 -28 7 -31 2 -14 -22 64 -31 90 -10 26 22
13 52 -34 80 -25 14 -46 31 -48 37 -7 19 34 35 56 23 19 -10 37 0 24 14 -7 7
-62 7 -80 -1z"/>
<path d="M757 183 c-4 -3 -7 -42 -7 -85 l0 -78 43 0 c58 0 87 30 87 87 0 33
-6 46 -26 62 -26 20 -83 28 -97 14z m96 -35 c36 -42 8 -107 -48 -111 -30 -2
-30 -2 -33 57 -2 32 -1 65 3 73 7 20 54 9 78 -19z"/>
<path d="M107 132 c-19 -21 -25 -128 -7 -117 6 3 10 28 10 55 0 40 4 50 20 55
12 4 27 1 35 -5 10 -8 15 -9 15 -2 0 11 -31 32 -48 32 -5 0 -16 -8 -25 -18z"/>
<path d="M216 129 c-35 -28 -33 -73 6 -102 23 -17 31 -19 53 -9 14 6 25 16 25
22 0 6 -8 6 -24 -1 -17 -8 -29 -8 -45 0 -36 20 -23 31 34 31 48 0 55 3 55 19
0 20 -44 61 -65 61 -7 0 -24 -10 -39 -21z m65 -9 c32 -18 21 -30 -26 -30 -47
0 -58 12 -27 29 22 13 29 13 53 1z"/>
<path d="M366 129 c-54 -43 -6 -134 57 -110 15 6 27 15 27 21 0 6 -8 6 -24 -1
-17 -8 -29 -8 -45 0 -36 20 -23 31 34 31 48 0 55 3 55 19 0 20 -44 61 -65 61
-7 0 -24 -10 -39 -21z m65 -9 c32 -18 21 -30 -26 -30 -47 0 -58 12 -27 29 22
13 29 13 53 1z"/>
</g>
</svg>
