<?xml version="1.0" standalone="no"?>
<!DOCTYPE svg PUBLIC "-//W3C//DTD SVG 20010904//EN"
 "http://www.w3.org/TR/2001/REC-SVG-20010904/DTD/svg10.dtd">
<svg version="1.0" xmlns="http://www.w3.org/2000/svg"
 width="90.000000pt" height="81.000000pt" viewBox="0 0 90.000000 81.000000"
 preserveAspectRatio="xMidYMid meet">
<metadata>
Created by potrace 1.10, written by Peter Selinger 2001-2011
</metadata>
<g transform="translate(0.000000,81.000000) scale(0.100000,-0.100000)"
fill="#904e74" stroke="none">
<path d="M627 784 c-32 -10 -51 -22 -56 -36 -7 -20 -15 -22 -104 -22 -80 -1
-97 2 -106 16 -12 19 -81 52 -89 43 -3 -3 -1 -5 4 -5 6 0 19 -6 30 -14 17 -13
13 -14 -38 -9 -51 5 -58 4 -58 -12 0 -14 3 -15 15 -5 10 8 29 10 54 6 23 -3
42 -2 46 4 4 6 11 8 16 4 6 -4 6 -11 -2 -20 -6 -8 -9 -15 -5 -15 3 -1 10 -2
15 -3 5 0 21 -11 35 -23 14 -13 26 -18 26 -12 0 8 5 8 15 -1 18 -15 20 1 3 18
-6 6 -9 14 -6 17 3 3 14 -2 24 -12 9 -10 27 -18 38 -18 23 0 28 -26 12 -60 -8
-17 -7 -18 6 -8 8 7 18 9 22 5 4 -4 6 -1 4 7 -2 8 6 14 17 15 11 1 29 8 40 15
18 11 16 12 -14 7 -29 -5 -32 -4 -21 9 7 8 17 12 23 8 5 -3 7 -2 4 4 -10 17
76 83 90 70 3 -3 -8 -12 -24 -21 -44 -22 -57 -41 -39 -55 26 -21 85 22 86 62
1 47 -63 24 -127 -46 -23 -25 -44 -43 -47 -40 -5 6 81 107 93 109 3 0 13 3 21
7 8 3 27 8 42 11 35 8 44 -18 23 -65 -23 -52 -40 -69 -69 -69 -25 0 -86 -25
-86 -35 0 -3 3 -4 8 -3 13 4 87 -14 98 -23 7 -5 16 -9 20 -8 21 4 45 -2 40 -9
-3 -5 6 -21 20 -36 25 -26 27 -56 4 -56 -6 0 -8 -5 -5 -10 4 -6 1 -17 -5 -25
-7 -8 -9 -15 -4 -15 4 0 -3 -11 -16 -25 -13 -14 -19 -25 -14 -25 5 0 -26 -17
-68 -38 -42 -21 -92 -51 -112 -65 -41 -31 -64 -34 -97 -9 -13 9 -41 26 -61 36
-21 10 -35 23 -31 29 4 6 -4 7 -21 3 -18 -4 -25 -3 -21 4 3 5 -1 10 -9 10 -9
0 -16 5 -16 10 0 6 -5 10 -11 10 -14 0 -60 36 -53 42 2 3 -2 11 -11 18 -13 10
-15 9 -15 -7 0 -19 49 -63 70 -63 5 0 15 -9 22 -20 7 -11 18 -20 23 -20 6 0
45 -18 88 -40 89 -46 105 -48 144 -17 15 13 67 43 116 67 61 31 87 49 87 62 0
10 5 18 10 18 6 0 10 9 10 20 0 11 3 20 8 20 4 0 13 14 20 30 13 28 12 33 -15
65 -15 19 -40 50 -54 68 l-27 32 24 34 c30 44 39 87 24 106 -15 18 -21 18 -83
-1z m23 -79 c-7 -8 -17 -12 -23 -8 -6 4 -3 11 8 19 23 17 32 10 15 -11z m-122
-7 c-2 -5 -8 -9 -13 -9 -5 0 -11 4 -13 9 -1 5 4 9 13 9 9 0 14 -4 13 -9z m105
-70 c-6 -11 -43 -10 -43 1 0 5 11 8 24 7 13 0 22 -4 19 -8z m26 -9 c-11 -7
-10 -9 4 -9 10 0 15 -5 12 -10 -10 -16 -35 8 -28 26 3 7 10 11 15 8 6 -4 5
-10 -3 -15z"/>
<path d="M190 764 c-8 -19 -5 -34 10 -64 11 -21 24 -41 30 -45 15 -9 12 -25
-4 -25 -8 0 -22 -10 -30 -22 -18 -25 -22 -63 -6 -53 6 4 8 11 5 16 -4 5 3 9
15 9 12 0 19 4 15 9 -3 6 10 8 32 5 l38 -5 -30 15 c-20 11 -22 14 -8 10 12 -3
32 0 45 7 16 9 23 9 26 0 2 -6 13 -11 25 -11 21 1 22 1 3 15 -11 8 -36 14 -57
13 -30 -1 -42 5 -63 28 -27 31 -44 90 -30 104 5 4 18 10 29 13 15 3 13 5 -8 6
-21 1 -30 -5 -37 -25z"/>
<path d="M225 730 c-11 -18 22 -57 52 -63 33 -6 43 0 23 14 -12 8 -10 9 7 7
12 -2 23 2 25 7 2 6 -17 10 -42 10 -25 0 -45 5 -45 10 0 11 8 11 45 1 24 -7
24 -6 6 8 -23 18 -62 21 -71 6z"/>
<path d="M348 676 c-19 -14 -13 -28 21 -46 18 -9 22 -9 16 0 -5 8 -3 11 6 8 8
-2 25 -24 38 -47 26 -47 26 -47 35 -9 5 23 3 26 -13 23 -13 -2 -18 1 -15 9 3
8 -12 27 -33 44 -32 25 -41 28 -55 18z m36 -28 c-3 -5 -12 -4 -20 3 -7 6 -11
15 -8 21 3 5 12 4 20 -3 7 -6 11 -15 8 -21z"/>
<path d="M465 660 c-4 -6 -10 -8 -15 -5 -4 3 -6 -4 -3 -15 6 -23 6 -23 22 8
12 22 8 32 -4 12z"/>
<path d="M475 639 c-11 -17 1 -21 15 -4 8 9 8 15 2 15 -6 0 -14 -5 -17 -11z"/>
<path d="M298 577 c-68 -24 -118 -51 -118 -67 0 -23 47 -58 85 -63 l40 -5 -30
13 c-16 8 -35 14 -42 15 -6 0 -14 4 -18 9 -8 14 42 -2 102 -32 51 -26 53 -26
82 -9 28 15 31 22 31 67 0 58 -6 70 -41 84 -20 7 -41 4 -91 -12z m86 -13 c22
-21 20 -47 -5 -70 -15 -14 -24 -16 -37 -8 -23 15 -27 58 -7 78 20 20 29 20 49
0z m-92 -49 c6 -27 8 -26 -54 -9 -21 6 -21 6 3 20 35 19 46 17 51 -11z"/>
<path d="M350 545 c10 -12 9 -15 -5 -15 -23 0 -13 -24 12 -28 14 -2 23 4 28
17 8 27 -1 41 -27 41 -17 0 -18 -2 -8 -15z"/>
<path d="M484 565 c-25 -60 -16 -103 27 -127 28 -16 31 -16 62 2 45 27 117 51
117 40 0 -6 -8 -10 -17 -10 -10 0 -36 -9 -58 -20 -40 -20 -34 -20 42 0 33 8
44 16 49 37 4 14 2 33 -3 42 -13 21 -130 69 -171 70 -29 1 -35 -4 -48 -34z
m80 2 c22 -16 18 -65 -6 -81 -13 -8 -22 -6 -37 8 -25 23 -27 49 -5 70 19 19
25 20 48 3z m79 -68 c-21 -9 -39 -16 -39 -15 -1 0 1 15 3 33 l5 32 35 -17 35
-17 -39 -16z"/>
<path d="M529 546 c12 -14 11 -16 -5 -16 -17 0 -17 -1 -2 -16 22 -22 50 -11
46 18 -2 16 -11 24 -28 26 -21 3 -22 2 -11 -12z"/>
<path d="M160 540 c0 -5 5 -10 11 -10 5 0 7 5 4 10 -3 6 -8 10 -11 10 -2 0 -4
-4 -4 -10z"/>
<path d="M130 500 c0 -18 48 -60 67 -59 11 0 8 4 -11 11 -15 6 -24 13 -18 17
5 3 -1 14 -14 24 -13 10 -24 13 -24 7z"/>
<path d="M446 454 c-8 -20 -4 -25 11 -16 7 4 9 13 4 21 -6 10 -10 9 -15 -5z"/>
<path d="M215 421 c3 -6 15 -11 26 -11 11 0 40 -5 64 -11 33 -8 46 -18 55 -40
16 -38 65 -79 95 -79 25 0 95 70 95 94 0 10 20 19 58 26 71 15 86 19 81 24 -2
3 -27 0 -54 -6 -28 -6 -59 -11 -70 -12 -13 0 -24 -12 -30 -31 -11 -33 -46 -45
-71 -25 -11 10 -17 10 -28 0 -22 -18 -61 -9 -62 15 -1 11 -2 26 -3 33 -1 7 -6
10 -11 7 -6 -4 -25 -2 -43 3 -57 18 -110 24 -102 13z m270 -103 c4 -3 -3 -11
-14 -18 -23 -12 -74 6 -53 19 14 9 58 8 67 -1z"/>
<path d="M423 404 c-3 -9 0 -20 8 -25 19 -12 22 -11 45 6 16 13 17 16 4 25
-23 15 -50 12 -57 -6z m27 2 c0 -3 -4 -8 -10 -11 -5 -3 -10 -1 -10 4 0 6 5 11
10 11 6 0 10 -2 10 -4z"/>
<path d="M255 390 c-3 -5 -1 -10 4 -10 6 0 11 5 11 10 0 6 -2 10 -4 10 -3 0
-8 -4 -11 -10z"/>
<path d="M508 383 c7 -3 16 -2 19 1 4 3 -2 6 -13 5 -11 0 -14 -3 -6 -6z"/>
<path d="M30 95 c0 -117 18 -128 22 -13 3 68 6 82 21 84 19 2 24 -12 6 -18
-16 -5 -25 -148 -10 -148 7 0 11 26 12 73 l1 72 17 -70 c13 -57 20 -71 37 -73
19 -3 23 5 35 65 7 37 13 76 13 86 0 29 31 15 34 -16 4 -30 -14 -38 -21 -9 -3
9 -5 -16 -6 -55 -1 -66 9 -93 22 -60 4 9 6 9 6 0 1 -7 6 -13 11 -13 6 0 10 38
10 95 l0 95 -38 0 -39 0 -13 -57 -13 -58 -15 58 -14 57 -39 0 -39 0 0 -95z
m107 -67 c-3 -7 -5 -2 -5 12 0 14 2 19 5 13 2 -7 2 -19 0 -25z"/>
<path d="M280 95 c0 -117 18 -127 23 -12 l3 82 2 -82 c3 -117 22 -106 22 12 0
95 0 95 -25 95 -25 0 -25 0 -25 -95z"/>
<path d="M380 95 c0 -93 15 -131 23 -58 l4 38 1 -37 c3 -56 20 -46 24 13 l3
50 38 -50 c42 -57 68 -69 37 -18 -22 35 -25 48 -11 45 5 -2 17 6 25 17 14 19
15 16 16 -37 0 -32 5 -58 10 -58 6 0 10 38 10 95 0 94 0 95 -24 95 -23 0 -25
-4 -28 -52 l-3 -52 -35 52 c-28 41 -41 52 -62 52 l-28 0 0 -95z m92 0 c9 -17
7 -16 -15 4 -23 21 -27 22 -33 7 -11 -28 -24 -18 -22 17 1 17 4 36 6 41 5 10
44 -33 64 -69z"/>
<path d="M600 95 c0 -85 9 -118 23 -82 4 9 6 9 6 0 1 -7 6 -13 11 -13 6 0 10
38 10 95 0 95 0 95 -25 95 -25 0 -25 0 -25 -95z m27 -32 c-2 -21 -4 -6 -4 32
0 39 2 55 4 38 2 -18 2 -50 0 -70z"/>
<path d="M717 142 l27 -48 -33 -47 c-20 -29 -27 -47 -19 -47 15 0 68 76 68 98
0 7 -5 23 -11 35 -12 22 -11 22 13 -1 l26 -23 21 28 22 28 -15 -32 c-9 -17
-13 -39 -9 -49 5 -13 2 -15 -15 -10 -15 5 -25 0 -41 -23 -12 -16 -21 -34 -21
-40 0 -20 16 -11 34 20 l18 31 19 -31 c29 -48 48 -35 20 14 -3 6 6 -3 21 -20
38 -43 42 -27 7 27 l-31 47 32 45 31 46 -34 0 c-28 0 -36 -5 -49 -32 l-15 -33
-17 33 c-13 25 -23 32 -46 32 l-30 0 27 -48z"/>
</g>
</svg>
