<?xml version="1.0" standalone="no"?>
<!DOCTYPE svg PUBLIC "-//W3C//DTD SVG 20010904//EN"
 "http://www.w3.org/TR/2001/REC-SVG-20010904/DTD/svg10.dtd">
<svg version="1.0" xmlns="http://www.w3.org/2000/svg"
 width="90.000000pt" height="54.000000pt" viewBox="0 0 90.000000 54.000000"
 preserveAspectRatio="xMidYMid meet">
<metadata>
Created by potrace 1.10, written by Peter Selinger 2001-2011
</metadata>
<g transform="translate(0.000000,54.000000) scale(0.100000,-0.100000)"
fill="#562d51" stroke="none">
<path d="M347 520 c-80 -20 -165 -78 -192 -131 -17 -33 -20 -92 -5 -120 25
-45 110 -63 149 -31 28 22 31 75 6 102 -33 36 -105 22 -105 -21 0 -22 37 -49
57 -42 17 7 12 28 -7 28 -7 0 -15 6 -18 13 -3 10 4 13 24 10 23 -2 30 -9 32
-30 3 -22 -2 -30 -23 -40 -22 -10 -30 -8 -53 9 -39 29 -41 74 -5 103 20 15 36
20 56 16 41 -8 86 -43 93 -72 5 -21 30 -44 49 -44 3 0 3 11 -1 24 -6 27 17 56
47 56 10 0 36 -15 56 -34 21 -18 49 -39 62 -46 22 -11 23 -11 16 6 -4 11 -10
31 -13 47 -5 30 -5 30 69 27 26 -1 63 5 83 14 43 18 50 40 7 23 -22 -8 -37 -7
-67 5 -21 9 -40 21 -42 28 -3 9 1 11 14 5 61 -25 73 -27 98 -21 26 6 28 10 22
39 -8 41 -25 53 -94 69 -42 9 -57 9 -59 1 -3 -9 -12 -9 -31 -2 -38 15 -180 20
-225 9z m246 -32 c33 0 47 -4 47 -14 0 -8 -3 -14 -8 -14 -4 0 -13 -9 -20 -21
-10 -16 -10 -24 -1 -35 9 -12 6 -16 -20 -25 -17 -6 -36 -20 -42 -31 -10 -18
-12 -18 -27 -5 -44 40 -87 40 -125 3 -12 -12 -18 -10 -48 17 -66 60 -93 68
-136 40 -25 -17 -26 -17 -13 4 15 23 55 50 115 75 32 14 59 16 135 12 52 -3
116 -6 143 -6z m131 -17 c33 -36 -18 -83 -52 -49 -15 15 -15 41 0 56 17 17 32
15 52 -7z"/>
<path d="M680 452 c0 -24 8 -32 26 -25 22 8 17 43 -6 43 -13 0 -20 -7 -20 -18z"/>
<path d="M360 175 c-7 -8 -10 -25 -6 -39 5 -21 13 -25 49 -28 57 -4 53 -22 -6
-26 -32 -2 -47 -7 -44 -15 4 -14 59 -21 94 -12 21 5 24 11 21 43 -3 36 -4 37
-43 37 -29 0 -40 4 -40 15 0 11 9 14 36 12 26 -2 38 1 42 12 5 13 -2 16 -42
16 -31 0 -53 -5 -61 -15z"/>
<path d="M491 134 c2 -65 17 -84 64 -84 49 0 65 21 65 86 0 46 -3 55 -17 52
-12 -2 -16 -15 -17 -53 -1 -49 -2 -50 -31 -50 -29 0 -30 2 -33 53 -2 38 -7 52
-18 52 -11 0 -14 -12 -13 -56z"/>
<path d="M644 176 c-3 -8 -4 -25 -2 -38 2 -19 10 -23 46 -26 61 -5 57 -30 -5
-34 -62 -4 -62 -22 0 -26 54 -4 77 9 77 43 0 31 -20 45 -58 39 -29 -5 -37 1
-29 24 1 4 17 7 36 7 19 0 36 6 38 13 7 18 -96 17 -103 -2z"/>
<path d="M780 120 l0 -70 55 0 c42 0 55 3 55 15 0 11 -11 15 -40 15 -29 0 -40
4 -40 15 0 11 11 15 36 15 24 0 34 4 31 13 -2 7 -18 11 -35 10 -25 -1 -32 2
-32 17 0 15 6 17 40 13 33 -5 40 -3 40 11 0 13 -11 16 -55 16 l-55 0 0 -70z"/>
<path d="M4 127 c-3 -9 -4 -28 -2 -44 3 -24 7 -28 33 -28 28 0 30 2 30 40 0
36 -3 40 -28 43 -17 2 -29 -2 -33 -11z m49 -26 c5 -22 0 -31 -20 -31 -7 0 -13
11 -13 25 0 30 25 34 33 6z"/>
<path d="M90 75 c0 -42 4 -64 10 -60 5 3 10 14 10 24 0 12 7 17 23 17 19 -1
22 4 22 39 0 38 -2 40 -32 43 l-33 3 0 -66z m50 20 c0 -16 -6 -25 -15 -25 -9
0 -15 9 -15 25 0 16 6 25 15 25 9 0 15 -9 15 -25z"/>
<path d="M180 100 c0 -43 16 -58 48 -45 14 6 14 8 2 12 -42 13 -44 16 -15 22
44 9 42 45 -2 49 -32 3 -33 2 -33 -38z m50 10 c0 -5 -9 -10 -20 -10 -11 0 -20
5 -20 10 0 6 9 10 20 10 11 0 20 -4 20 -10z"/>
<path d="M260 96 c0 -25 5 -46 10 -46 6 0 10 16 10 35 0 24 5 35 15 35 10 0
15 -11 15 -35 0 -19 5 -35 11 -35 6 0 9 17 7 43 -3 39 -5 42 -35 45 -33 3 -33
3 -33 -42z"/>
</g>
</svg>
