<?xml version="1.0" standalone="no"?>
<!DOCTYPE svg PUBLIC "-//W3C//DTD SVG 20010904//EN"
 "http://www.w3.org/TR/2001/REC-SVG-20010904/DTD/svg10.dtd">
<svg version="1.0" xmlns="http://www.w3.org/2000/svg"
 width="91.000000pt" height="94.000000pt" viewBox="0 0 91.000000 94.000000"
 preserveAspectRatio="xMidYMid meet">
<metadata>
Created by potrace 1.10, written by Peter Selinger 2001-2011
</metadata>
<g transform="translate(0.000000,94.000000) scale(0.100000,-0.100000)"
fill="#ab4c82" stroke="none">
<path d="M351 919 c-46 -14 -120 -64 -155 -106 -16 -18 -40 -62 -54 -96 -21
-53 -24 -72 -19 -142 9 -136 67 -228 179 -284 54 -28 71 -31 149 -31 65 0 99
5 134 20 52 22 111 64 119 85 3 8 -18 -4 -47 -26 -70 -53 -141 -73 -233 -66
-78 6 -117 21 -181 74 -48 39 -93 108 -89 137 4 28 76 26 105 -3 39 -39 58
-19 21 22 -22 23 -23 58 -3 64 6 2 22 -6 35 -19 13 -13 27 -22 32 -20 5 2 22
-9 37 -24 27 -26 35 -28 126 -30 54 -1 99 -2 100 -3 7 -4 -25 -72 -48 -103
-49 -62 -7 -52 64 15 14 14 30 18 59 15 33 -3 43 0 58 22 54 76 64 217 22 312
-27 63 -95 134 -157 166 -40 20 -67 26 -135 28 -47 2 -100 -1 -119 -7z m221
-67 c25 -20 61 -127 56 -167 -4 -39 -1 -43 17 -18 11 15 15 15 46 -3 59 -35
52 -100 -14 -139 -52 -30 -139 -34 -229 -10 -88 23 -220 102 -252 151 -17 25
-17 27 1 45 10 11 37 22 60 25 40 5 42 4 45 -23 2 -23 13 -33 60 -56 32 -15
73 -31 93 -34 l35 -6 -15 30 c-12 24 -27 34 -75 48 -80 24 -93 40 -81 96 15
66 32 75 143 74 62 0 100 -4 110 -13z m-273 -34 c-1 -47 -20 -64 -66 -59 -22
2 -15 22 18 52 37 35 49 36 48 7z m373 -25 c35 -36 75 -110 65 -120 -7 -6 -64
24 -74 39 -8 13 -29 66 -40 101 -9 28 10 20 49 -20z m-444 -218 c-2 -15 -11
-20 -33 -20 -27 0 -30 4 -33 33 -6 60 4 69 39 36 18 -17 29 -37 27 -49z m508
-61 c-3 -9 -9 -27 -12 -40 -7 -25 -42 -41 -70 -30 -23 9 -13 27 32 58 45 31
59 35 50 12z"/>
<path d="M508 843 c6 -2 12 -11 12 -18 0 -8 7 -11 20 -8 16 4 18 8 9 19 -6 8
-21 14 -33 13 -11 0 -15 -3 -8 -6z"/>
<path d="M350 793 c0 -29 8 -33 58 -26 52 7 55 23 4 23 -21 0 -43 5 -50 12 -9
9 -12 7 -12 -9z"/>
<path d="M467 434 c-12 -12 4 -24 34 -24 16 0 29 5 29 10 0 6 -6 10 -14 10 -8
0 -21 2 -28 5 -8 3 -17 3 -21 -1z"/>
<path d="M740 384 c0 -9 7 -14 17 -12 25 5 28 28 4 28 -12 0 -21 -6 -21 -16z"/>
<path d="M410 210 c0 -39 -1 -39 -30 -34 -66 14 -110 -59 -76 -125 20 -38 57
-49 90 -27 22 14 25 14 30 0 3 -9 11 -14 17 -12 17 6 18 226 1 233 -27 10 -32
4 -32 -35z m-16 -66 c25 -9 22 -80 -4 -94 -29 -15 -64 22 -55 58 9 37 27 48
59 36z"/>
<path d="M500 120 c0 -67 4 -110 10 -110 6 0 10 28 10 63 0 70 10 87 51 87 33
0 39 -14 39 -91 0 -33 4 -59 10 -59 6 0 10 29 10 68 0 54 -4 72 -18 85 -21 19
-45 21 -73 7 -17 -10 -19 -7 -19 25 0 19 -4 35 -10 35 -6 0 -10 -43 -10 -110z"/>
<path d="M840 195 c0 -8 -7 -15 -15 -15 -8 0 -15 -4 -15 -10 0 -5 7 -10 15
-10 12 0 15 -14 15 -69 0 -54 4 -70 16 -75 24 -9 44 -7 44 4 0 6 -9 10 -20 10
-18 0 -20 7 -20 65 0 58 2 65 20 65 11 0 20 5 20 10 0 6 -9 10 -20 10 -11 0
-20 7 -20 15 0 8 -4 15 -10 15 -5 0 -10 -7 -10 -15z"/>
<path d="M70 170 c-15 -15 -20 -17 -20 -5 0 8 -8 15 -18 15 -16 0 -18 -10 -17
-82 0 -76 2 -83 20 -83 17 0 21 8 25 60 4 53 8 60 28 63 14 2 22 10 22 22 0
29 -17 33 -40 10z"/>
<path d="M141 154 c-25 -31 -27 -81 -6 -111 27 -38 125 -43 125 -7 0 12 -7 14
-29 9 -34 -7 -71 9 -71 31 0 12 11 15 53 13 47 -3 52 -1 55 19 2 13 -4 34 -12
48 -24 35 -87 34 -115 -2z m87 -26 c3 -15 -4 -18 -32 -18 -39 0 -39 0 -30 25
9 22 58 16 62 -7z"/>
<path d="M680 170 c-16 -10 -14 -11 40 -13 52 -3 52 -30 0 -46 -45 -13 -64
-43 -48 -74 13 -26 36 -32 69 -20 16 7 29 7 29 2 0 -5 4 -9 9 -9 11 0 1 142
-11 158 -12 14 -67 16 -88 2z m80 -94 c0 -28 -22 -49 -47 -44 -25 5 -29 39 -7
55 29 21 54 16 54 -11z"/>
</g>
</svg>
