<?xml version="1.0" standalone="no"?>
<!DOCTYPE svg PUBLIC "-//W3C//DTD SVG 20010904//EN"
 "http://www.w3.org/TR/2001/REC-SVG-20010904/DTD/svg10.dtd">
<svg version="1.0" xmlns="http://www.w3.org/2000/svg"
 width="89.000000pt" height="84.000000pt" viewBox="0 0 89.000000 84.000000"
 preserveAspectRatio="xMidYMid meet">
<metadata>
Created by potrace 1.10, written by Peter Selinger 2001-2011
</metadata>
<g transform="translate(0.000000,84.000000) scale(0.100000,-0.100000)"
fill="#ab4c82" stroke="none">
<path d="M327 806 c-42 -15 -56 -25 -110 -75 -59 -55 -80 -103 -85 -196 -7
-136 48 -239 159 -300 44 -23 69 -30 135 -33 71 -4 89 -1 136 20 75 35 122 79
158 150 24 50 30 74 30 128 0 100 -23 154 -94 226 -43 42 -76 66 -110 77 -59
20 -166 21 -219 3z m162 -11 c48 -4 52 -5 45 -17 -4 -7 -3 -8 5 -4 16 11 96
-38 125 -77 66 -88 79 -205 33 -300 -88 -179 -325 -225 -464 -89 -63 61 -84
113 -82 206 1 49 5 73 12 69 5 -3 7 -1 4 4 -9 15 17 75 28 66 4 -5 5 0 1 11
-5 14 -2 17 9 12 9 -3 14 -2 11 3 -8 12 54 82 66 75 4 -3 8 -1 8 4 0 14 57 35
101 37 21 1 42 5 45 8 4 4 11 4 17 0 5 -3 22 -7 36 -8z"/>
<path d="M526 741 c-3 -5 -32 -7 -63 -5 -85 6 -116 -2 -157 -43 -27 -28 -36
-45 -36 -70 0 -38 15 -73 31 -73 6 0 3 10 -5 22 -49 70 23 151 131 148 32 -1
77 -1 99 -1 l42 2 4 -46 c6 -80 -27 -99 -76 -44 -24 26 -33 30 -73 27 -30 -2
-50 -9 -57 -20 -15 -25 2 -38 60 -43 l49 -5 -43 13 c-52 14 -57 27 -19 40 32
10 83 -6 72 -23 -3 -6 0 -10 7 -10 10 0 10 -2 -1 -9 -11 -7 -5 -13 24 -26 22
-8 48 -23 59 -33 20 -16 20 -16 6 3 -8 11 -19 23 -25 28 -6 5 -4 12 5 20 22
18 41 65 29 72 -5 4 -7 10 -4 15 3 4 2 15 -1 23 -8 21 -52 49 -58 38z"/>
<path d="M370 699 c-38 -15 -70 -50 -70 -76 0 -55 30 -74 135 -89 65 -9 85
-20 85 -48 0 -72 -139 -84 -178 -15 -10 16 -25 29 -34 29 -15 0 -18 -9 -18
-50 0 -53 17 -73 43 -51 10 7 24 7 52 0 53 -15 119 -3 155 28 26 21 31 32 28
61 -4 48 -38 71 -124 83 -44 6 -76 16 -88 29 -18 18 -18 20 -2 44 30 47 122
47 152 1 29 -45 57 -30 48 26 l-6 34 -76 2 c-43 1 -88 -3 -102 -8z m166 -46
c-7 -7 -26 7 -26 19 0 6 6 6 15 -2 9 -7 13 -15 11 -17z m-196 -224 c0 -5 -6
-9 -14 -9 -8 0 -14 9 -13 19 1 15 4 17 14 9 7 -6 13 -14 13 -19z"/>
<path d="M286 525 c-14 -13 -26 -28 -26 -32 0 -4 10 2 21 14 18 17 26 19 45
11 12 -6 25 -22 29 -35 3 -14 9 -23 12 -19 3 3 13 0 21 -6 18 -16 49 -21 34
-6 -6 6 -21 16 -34 22 -12 6 -23 17 -23 23 0 15 -31 53 -43 53 -5 0 -21 -11
-36 -25z"/>
<path d="M370 515 c7 -9 15 -13 17 -11 7 7 -7 26 -19 26 -6 0 -6 -6 2 -15z"/>
<path d="M420 506 c0 -8 4 -17 9 -20 5 -4 7 3 4 14 -6 23 -13 26 -13 6z"/>
<path d="M440 509 c0 -5 9 -9 19 -9 28 0 37 -21 16 -37 -17 -11 -17 -13 -2
-13 23 0 41 35 24 48 -18 14 -57 22 -57 11z"/>
<path d="M213 458 c-12 -15 -10 -94 1 -106 4 -4 7 0 6 8 -1 8 -2 34 -1 57 1
33 4 41 16 37 10 -4 15 -20 15 -50 l0 -44 155 0 c97 0 155 4 155 10 0 6 -8 10
-17 10 -13 0 -11 5 10 18 15 9 27 22 27 29 0 7 5 13 12 13 6 0 8 3 4 7 -4 4
-17 -5 -29 -21 -28 -35 -99 -55 -167 -46 -27 3 -56 2 -65 -3 -26 -14 -65 18
-65 52 0 37 -36 55 -57 29z"/>
<path d="M232 393 l-2 -53 203 2 202 3 -197 2 -197 3 -4 48 -3 47 -2 -52z"/>
<path d="M570 369 c0 -5 16 -9 35 -9 46 0 46 14 0 17 -19 1 -35 -2 -35 -8z"/>
<path d="M235 319 c4 -5 10 -7 15 -4 4 3 11 -1 13 -7 4 -10 6 -10 6 0 1 8 9
10 24 7 42 -10 87 -12 87 -4 0 4 13 4 29 -1 15 -4 34 -5 40 0 16 9 64 0 73
-14 5 -7 8 -7 8 2 0 7 4 11 9 7 5 -3 12 -1 15 4 4 5 17 8 31 5 13 -2 27 0 30
6 4 7 -58 10 -190 10 -121 -1 -193 -5 -190 -11z"/>
<path d="M160 170 c-13 -8 -12 -10 3 -10 13 0 17 -8 17 -35 0 -24 -5 -35 -15
-35 -8 0 -15 -4 -15 -10 0 -5 16 -10 35 -10 19 0 35 5 35 10 0 6 -7 10 -15 10
-11 0 -15 12 -15 45 0 46 -4 52 -30 35z"/>
<path d="M430 170 c-10 -6 -11 -10 -2 -10 16 0 16 -62 0 -78 -9 -9 -8 -12 4
-12 9 0 19 10 21 23 l4 22 8 -22 c4 -13 16 -23 26 -23 25 0 24 8 -3 30 -21 17
-21 19 -5 25 20 8 23 25 3 25 -8 0 -17 -8 -22 -17 -6 -14 -9 -11 -13 14 -5 26
-9 31 -21 23z"/>
<path d="M61 136 c-8 -10 -9 -16 -1 -21 6 -4 7 -12 0 -24 -8 -15 -5 -18 20
-19 16 0 34 6 41 14 9 11 5 17 -22 29 -30 14 -31 15 -6 10 18 -4 27 -1 27 8 0
17 -45 20 -59 3z m41 -48 c-9 -9 -15 -9 -24 0 -9 9 -7 12 12 12 19 0 21 -3 12
-12z"/>
<path d="M244 138 c-5 -8 0 -9 14 -6 12 4 24 2 27 -2 3 -5 -5 -10 -17 -12 -15
-2 -23 -10 -23 -23 0 -16 7 -20 38 -22 20 -1 37 2 37 7 0 6 -4 10 -10 10 -5 0
-7 7 -4 15 13 32 -44 62 -62 33z m46 -37 c0 -12 -28 -22 -34 -12 -3 5 -3 11 1
15 9 9 33 7 33 -3z"/>
<path d="M346 134 c-19 -19 -20 -25 -3 -49 10 -13 21 -16 40 -11 37 9 34 24
-3 18 -25 -4 -30 -1 -30 17 0 14 6 21 20 21 11 0 20 -4 20 -10 0 -5 5 -10 10
-10 6 0 10 8 10 18 0 23 -43 27 -64 6z"/>
<path d="M515 133 c4 -10 10 -28 12 -40 8 -37 21 -26 19 17 0 32 -4 40 -19 40
-14 0 -17 -4 -12 -17z"/>
<path d="M570 140 c0 -5 5 -10 10 -10 7 0 7 -6 0 -19 -12 -24 -13 -41 -1 -41
5 0 11 10 14 23 2 12 8 30 12 40 5 13 2 17 -14 17 -12 0 -21 -4 -21 -10z"/>
<path d="M624 139 c-5 -9 -1 -11 14 -7 12 4 25 2 28 -3 3 -5 -4 -9 -14 -9 -27
0 -46 -24 -30 -37 16 -13 78 -15 78 -2 0 5 -4 9 -9 9 -5 0 -11 12 -13 28 -3
29 -40 44 -54 21z m36 -44 c-7 -8 -16 -12 -21 -9 -13 8 -1 24 18 24 13 0 13
-3 3 -15z"/>
<path d="M710 139 c0 -5 5 -9 10 -9 6 0 10 -9 10 -20 0 -11 -4 -20 -10 -20 -5
0 -10 -4 -10 -10 0 -13 57 -13 65 0 3 6 -4 10 -15 10 -16 0 -20 4 -16 16 3 9
6 18 6 20 0 2 9 4 20 4 11 0 20 4 20 9 0 4 -18 8 -40 8 -22 0 -40 -4 -40 -8z"/>
<path d="M816 134 c-19 -18 -19 -20 -6 -45 12 -21 46 -25 70 -8 12 8 10 10
-10 8 -38 -2 -50 0 -50 9 0 5 14 7 30 4 32 -5 41 13 18 36 -16 16 -33 15 -52
-4z m37 -11 c-7 -2 -19 -2 -25 0 -7 3 -2 5 12 5 14 0 19 -2 13 -5z"/>
<path d="M550 115 c0 -8 5 -15 10 -15 6 0 10 7 10 15 0 8 -4 15 -10 15 -5 0
-10 -7 -10 -15z"/>
<path d="M10 106 c-3 -3 -4 -23 -2 -45 l4 -41 248 0 c155 0 251 4 255 10 4 7
-80 10 -244 10 l-250 0 -3 36 c-2 20 -5 33 -8 30z"/>
<path d="M550 36 c0 -14 5 -26 10 -26 6 0 10 9 10 19 0 11 -4 23 -10 26 -6 4
-10 -5 -10 -19z"/>
<path d="M621 38 c-1 -16 4 -28 9 -28 12 0 12 8 0 35 -8 18 -9 17 -9 -7z"/>
<path d="M687 43 c-14 -13 -6 -33 12 -33 14 0 18 5 14 20 -5 21 -15 25 -26 13z"/>
<path d="M754 30 c1 -8 9 -16 18 -18 13 -2 15 2 11 19 -6 22 -7 22 -13 3 -6
-15 -8 -16 -12 -4 -4 13 -5 13 -4 0z"/>
<path d="M823 30 c0 -9 9 -17 18 -17 11 -1 15 4 12 16 -6 22 -32 23 -30 1z"/>
</g>
</svg>
