<?xml version="1.0" standalone="no"?>
<!DOCTYPE svg PUBLIC "-//W3C//DTD SVG 20010904//EN"
 "http://www.w3.org/TR/2001/REC-SVG-20010904/DTD/svg10.dtd">
<svg version="1.0" xmlns="http://www.w3.org/2000/svg"
 width="90.000000pt" height="91.000000pt" viewBox="0 0 90.000000 91.000000"
 preserveAspectRatio="xMidYMid meet">
<metadata>
Created by potrace 1.10, written by Peter Selinger 2001-2011
</metadata>
<g transform="translate(0.000000,91.000000) scale(0.100000,-0.100000)"
fill="#943c6f" stroke="none">
<path d="M377 890 c-93 -24 -168 -84 -214 -173 -23 -44 -27 -65 -28 -137 0
-73 4 -93 28 -142 30 -62 83 -115 149 -150 36 -19 58 -23 138 -23 111 0 161
20 228 89 70 71 87 117 87 226 0 87 -3 100 -30 149 -34 61 -91 115 -152 143
-50 22 -152 31 -206 18z m151 -35 c12 -4 10 -11 -12 -34 -21 -22 -35 -27 -67
-26 -22 1 -42 -2 -45 -7 -3 -4 -9 -6 -14 -3 -4 3 -13 -2 -20 -10 -7 -8 -17
-15 -23 -15 -17 0 -97 -82 -97 -99 0 -8 -3 -11 -7 -8 -3 4 -13 1 -21 -6 -13
-10 -14 -9 -7 3 6 11 3 10 -12 -3 -24 -21 -35 -13 -23 19 5 13 8 24 5 24 -7 0
41 67 71 100 16 16 34 30 40 30 6 0 17 7 24 15 7 8 16 13 20 10 5 -3 11 -1 15
5 4 6 10 8 15 5 5 -3 11 -2 14 3 5 8 120 6 144 -3z m71 -67 c13 -33 -4 -58
-39 -58 -23 0 -31 5 -36 25 -8 31 10 55 43 55 15 0 27 -8 32 -22z m78 -21 c13
-15 14 -18 3 -12 -8 4 -2 -6 14 -23 17 -18 26 -32 22 -32 -5 0 -3 -7 4 -15 7
-8 9 -15 5 -15 -4 0 -3 -6 1 -12 5 -7 8 -44 7 -83 -3 -103 -10 -122 -64 -180
-28 -29 -37 -34 -35 -20 2 11 1 25 -3 30 -10 17 -8 29 8 49 14 16 14 18 1 11
-9 -5 -7 0 5 14 16 18 19 36 19 103 -1 57 -5 82 -15 89 -8 5 -10 9 -5 9 5 0 2
8 -6 18 -15 18 -17 30 -7 47 4 6 5 17 4 26 -4 22 22 20 42 -4z m-162 -33 c11
-13 33 -24 50 -26 31 -3 57 -37 70 -90 7 -27 5 -28 -29 -28 -30 0 -36 4 -36
21 0 12 -16 37 -35 56 -31 31 -39 34 -85 32 -43 -2 -53 1 -66 20 -19 26 -16
31 28 41 45 10 79 2 103 -26z m-147 -32 c8 -18 9 -28 2 -30 -19 -7 -40 -60
-40 -101 0 -28 8 -48 26 -70 24 -29 24 -31 8 -56 -16 -24 -18 -25 -36 -8 -10
9 -28 32 -40 51 -17 28 -19 38 -10 53 15 24 15 62 1 76 -17 17 38 113 65 113
6 0 17 -12 24 -28z m128 -53 c16 -12 17 -12 9 1 -8 13 -7 13 8 1 10 -8 15 -16
12 -19 -3 -3 1 -12 8 -20 20 -25 14 -55 -18 -89 -30 -32 -80 -50 -91 -32 -3 5
-9 7 -13 4 -5 -2 -16 4 -26 15 -10 11 -15 20 -10 20 4 0 3 6 -2 13 -20 27 4
103 37 115 30 11 66 7 86 -9z m-226 -48 c20 -39 -22 -82 -60 -61 -22 12 -27
49 -8 68 18 18 56 14 68 -7z m370 -40 c0 -18 -24 -77 -38 -93 -8 -10 -26 -18
-39 -18 -14 0 -36 -13 -53 -31 -27 -30 -32 -32 -81 -26 -28 4 -54 8 -56 10 -2
3 1 16 8 29 10 22 17 25 62 25 73 -1 108 25 131 96 6 17 66 26 66 8z m-437
-44 c4 3 7 2 7 -4 0 -6 7 -14 16 -17 10 -4 13 -2 8 7 -4 6 2 3 14 -7 12 -11
20 -22 17 -24 -7 -8 56 -72 71 -72 6 0 17 -7 24 -15 6 -8 15 -14 18 -13 4 0 9
-1 12 -2 3 -1 19 -3 35 -6 54 -7 64 -10 83 -27 10 -9 21 -14 24 -11 3 3 9 -1
14 -8 4 -7 4 -10 -1 -6 -4 4 -15 2 -23 -5 -18 -14 -142 -18 -142 -4 0 5 -7 7
-15 4 -8 -4 -17 -2 -20 4 -4 5 -10 7 -15 4 -4 -3 -13 2 -20 10 -7 8 -18 15
-24 15 -7 0 -25 14 -42 32 -16 17 -22 27 -14 23 8 -4 3 5 -12 21 -28 30 -58
125 -34 105 7 -6 16 -8 19 -4z m397 -106 c20 -39 -22 -82 -60 -61 -22 12 -27
49 -8 68 18 18 56 14 68 -7z"/>
<path d="M170 136 c0 -95 3 -115 16 -120 44 -17 99 5 112 44 21 60 -13 114
-71 112 -32 -1 -32 -1 -29 38 3 32 1 40 -12 40 -14 0 -16 -16 -16 -114z m96
-14 c7 -14 9 -35 5 -50 -6 -21 -14 -28 -39 -30 l-32 -3 0 49 c0 27 3 52 7 56
14 13 48 1 59 -22z"/>
<path d="M660 131 c0 -99 12 -125 58 -119 36 4 39 26 5 30 -26 3 -28 6 -31 56
-3 52 -3 53 24 50 15 -2 29 3 31 10 3 8 -6 12 -26 12 -26 0 -31 4 -31 25 0 16
-6 25 -15 25 -12 0 -15 -17 -15 -89z"/>
<path d="M10 100 c6 -76 15 -90 62 -90 54 0 58 6 58 86 0 59 -3 74 -15 74 -12
0 -15 -14 -15 -65 l0 -65 -30 0 c-34 0 -45 24 -38 90 3 31 0 40 -12 40 -13 0
-14 -11 -10 -70z"/>
<path d="M333 103 c6 -73 20 -93 68 -93 55 0 59 6 59 86 0 59 -3 74 -15 74
-12 0 -15 -14 -15 -65 l0 -65 -29 0 c-34 0 -41 14 -41 81 0 39 -3 49 -16 49
-14 0 -16 -9 -11 -67z"/>
<path d="M500 90 c0 -64 3 -80 15 -80 12 0 15 14 15 70 0 68 1 70 25 70 32 0
47 -30 44 -88 -3 -36 0 -47 11 -47 12 0 15 14 15 61 0 78 -13 94 -76 94 l-49
0 0 -80z"/>
<path d="M770 121 c0 -91 25 -120 93 -107 l32 6 0 75 c0 54 -3 75 -12 75 -9 0
-13 -19 -13 -66 l0 -65 -32 3 c-33 3 -33 3 -36 66 -2 46 -7 62 -17 62 -11 0
-15 -13 -15 -49z"/>
</g>
</svg>
