<?xml version="1.0" standalone="no"?>
<!DOCTYPE svg PUBLIC "-//W3C//DTD SVG 20010904//EN"
 "http://www.w3.org/TR/2001/REC-SVG-20010904/DTD/svg10.dtd">
<svg version="1.0" xmlns="http://www.w3.org/2000/svg"
 width="90.000000pt" height="84.000000pt" viewBox="0 0 90.000000 84.000000"
 preserveAspectRatio="xMidYMid meet">
<metadata>
Created by potrace 1.10, written by Peter Selinger 2001-2011
</metadata>
<g transform="translate(0.000000,84.000000) scale(0.100000,-0.100000)"
fill="#ab4c82" stroke="none">
<path d="M440 821 c0 -7 -15 -49 -34 -92 l-34 -79 36 -30 c42 -35 35 -40 -14
-9 l-33 20 -37 -73 c-39 -79 -144 -272 -176 -326 l-20 -32 74 39 c40 21 97 46
126 56 51 16 52 17 52 55 0 52 14 86 44 105 46 30 86 -11 96 -98 l5 -48 67
-24 c38 -12 92 -37 122 -54 l55 -30 -31 52 c-19 34 -48 66 -79 87 -27 18 -49
35 -49 36 0 6 54 -17 68 -29 8 -6 -21 55 -63 137 -43 82 -97 191 -121 243 -44
97 -54 115 -54 94z m16 -79 c9 -6 21 -30 29 -62 1 -3 5 -12 9 -21 8 -19 5 -41
-9 -52 -5 -5 1 -5 14 -2 15 5 21 3 17 -3 -3 -6 -3 -12 2 -14 4 -1 18 -17 30
-35 l22 -31 -22 3 c-13 3 -34 7 -48 10 -14 4 -36 2 -50 -4 -23 -9 -21 -10 15
-9 91 1 112 -10 145 -79 20 -43 20 -46 3 -59 -17 -12 -16 -15 14 -44 18 -16
36 -30 40 -30 5 0 14 -9 21 -20 15 -25 18 -25 -59 6 -82 33 -85 36 -92 85 -7
50 -30 87 -65 100 -53 20 -98 -24 -110 -107 l-7 -47 -78 -29 c-42 -15 -77 -25
-77 -23 0 9 83 160 97 176 7 9 31 24 53 34 22 10 40 22 40 27 0 4 -18 -1 -40
-12 -48 -25 -58 -25 -38 -2 9 9 25 36 37 60 l22 42 31 -16 c23 -12 33 -13 36
-5 2 6 11 19 20 28 16 16 16 16 0 10 -10 -3 -18 -2 -18 3 0 6 -7 10 -16 10 -8
0 -13 4 -10 8 2 4 1 14 -4 22 -7 11 -3 20 13 33 14 12 16 17 6 14 -14 -5 -15
-2 -5 19 12 26 15 28 32 16z"/>
<path d="M345 184 c-6 -2 -9 -38 -7 -88 3 -67 6 -84 17 -80 8 4 15 24 17 52 3
40 6 47 26 50 21 3 22 0 22 -53 0 -48 3 -56 16 -51 9 3 16 6 17 6 5 0 -1 99
-7 108 -11 18 -44 20 -73 5 -18 -9 -24 -10 -15 -2 13 14 17 60 5 58 -5 0 -12
-2 -18 -5z"/>
<path d="M480 105 c0 -50 4 -85 10 -85 6 0 10 35 10 85 0 50 -4 85 -10 85 -6
0 -10 -35 -10 -85z"/>
<path d="M520 180 c0 -5 5 -10 11 -10 5 0 7 5 4 10 -3 6 -8 10 -11 10 -2 0 -4
-4 -4 -10z"/>
<path d="M27 143 c-17 -16 -5 -29 21 -25 18 2 33 -2 43 -14 13 -16 12 -16 -7
-4 -13 8 -32 10 -48 6 -24 -6 -27 -11 -24 -44 3 -32 7 -37 31 -40 16 -2 35 2
43 9 12 10 13 9 8 -5 -5 -12 -2 -15 10 -10 19 7 23 83 6 115 -11 19 -68 28
-83 12z m57 -72 c3 -5 -1 -14 -9 -21 -12 -10 -18 -10 -30 0 -18 15 -11 30 15
30 10 0 21 -4 24 -9z"/>
<path d="M140 84 c0 -50 3 -64 15 -64 11 0 15 12 15 44 0 35 4 46 19 51 11 3
21 12 24 19 4 10 -5 13 -34 13 l-39 0 0 -63z"/>
<path d="M230 132 c-29 -24 -32 -78 -5 -98 22 -16 81 -19 90 -4 11 18 -5 30
-25 18 -22 -14 -50 4 -50 33 0 25 37 44 56 29 11 -10 15 -9 20 4 8 21 5 24
-32 32 -21 4 -37 0 -54 -14z"/>
<path d="M523 75 c0 -38 2 -53 4 -32 2 20 2 52 0 70 -2 17 -4 1 -4 -38z"/>
<path d="M562 80 c1 -57 2 -59 5 -17 3 39 9 50 28 59 38 17 55 -4 50 -57 -3
-24 0 -47 5 -50 15 -9 12 99 -2 113 -15 15 -55 16 -64 1 -4 -8 -9 -7 -15 2 -5
9 -8 -11 -7 -51z"/>
<path d="M680 86 c0 -66 17 -85 60 -69 21 8 30 8 34 -1 2 -6 4 21 3 59 0 49
-2 57 -4 25 -5 -53 -17 -70 -49 -70 -22 0 -24 4 -24 55 0 30 -4 55 -10 55 -5
0 -10 -24 -10 -54z"/>
<path d="M800 133 c0 -4 10 -17 21 -29 l21 -23 -21 -27 c-29 -37 -26 -56 4
-19 24 29 25 29 39 10 9 -11 16 -24 16 -28 0 -5 4 -5 10 -2 6 4 1 18 -12 35
-20 28 -20 30 -4 54 9 15 12 26 7 26 -6 0 -15 -10 -22 -22 l-11 -21 -17 26
c-15 25 -31 36 -31 20z"/>
</g>
</svg>
