<?xml version="1.0" standalone="no"?>
<!DOCTYPE svg PUBLIC "-//W3C//DTD SVG 20010904//EN"
 "http://www.w3.org/TR/2001/REC-SVG-20010904/DTD/svg10.dtd">
<svg version="1.0" xmlns="http://www.w3.org/2000/svg"
 width="90.000000pt" height="84.000000pt" viewBox="0 0 90.000000 84.000000"
 preserveAspectRatio="xMidYMid meet">
<metadata>
Created by potrace 1.10, written by Peter Selinger 2001-2011
</metadata>
<g transform="translate(0.000000,84.000000) scale(0.100000,-0.100000)"
fill="#904e74" stroke="none">
<path d="M412 797 c-18 -18 -32 -35 -32 -38 0 -3 14 -4 30 -1 l30 4 0 -101 c0
-61 4 -101 10 -101 6 0 10 40 10 101 l0 102 32 -7 32 -6 -39 40 c-21 22 -40
40 -40 40 -1 0 -15 -15 -33 -33z"/>
<path d="M230 688 l0 -52 22 22 22 22 73 -72 c40 -40 73 -67 73 -60 0 7 -30
41 -67 76 l-68 64 24 26 24 26 -51 0 -52 0 0 -52z"/>
<path d="M337 720 c-9 -11 -17 -24 -17 -28 0 -4 23 -30 50 -57 l50 -49 0 77 0
77 -33 0 c-20 0 -39 -8 -50 -20z m51 -41 c-1 -20 -4 -26 -9 -17 -12 18 -11 48
0 48 5 0 9 -14 9 -31z"/>
<path d="M480 666 l0 -75 49 52 50 52 -21 23 c-13 13 -33 22 -50 22 l-28 0 0
-74z"/>
<path d="M570 732 c0 -4 10 -13 21 -21 21 -12 20 -15 -51 -86 -39 -40 -68 -75
-63 -78 5 -3 41 25 79 64 l69 70 22 -28 23 -28 0 58 0 57 -50 0 c-27 0 -50 -3
-50 -8z"/>
<path d="M248 631 c-10 -10 -18 -32 -18 -49 l0 -32 59 0 c33 0 68 -3 78 -6 10
-4 -7 19 -37 50 -30 31 -57 56 -60 55 -3 0 -13 -8 -22 -18z m48 -35 c19 -20
18 -26 -6 -26 -11 0 -20 2 -20 4 0 2 -3 11 -6 20 -8 20 12 21 32 2z"/>
<path d="M568 597 c-27 -27 -48 -50 -48 -51 0 0 34 0 75 2 74 4 75 4 75 31 0
24 -37 74 -51 70 -2 -1 -25 -24 -51 -52z"/>
<path d="M170 555 l-34 -35 37 -38 37 -37 0 33 0 32 100 0 c60 0 100 4 100 10
0 6 -40 10 -99 10 l-100 0 -3 31 -3 30 -35 -36z"/>
<path d="M686 562 l7 -32 -102 0 c-61 0 -101 -4 -101 -10 0 -6 40 -10 101 -10
l102 0 -6 -30 c-8 -39 1 -38 41 3 l32 33 -40 39 -40 39 6 -32z"/>
<path d="M230 457 c0 -21 8 -41 20 -52 19 -18 21 -17 74 33 l55 52 -75 0 -74
0 0 -33z"/>
<path d="M340 425 l-64 -65 -23 22 -23 21 0 -51 0 -52 52 0 51 0 -21 23 -22
23 65 64 c36 36 65 68 65 72 0 18 -19 4 -80 -57z"/>
<path d="M538 417 l72 -73 -22 -22 -22 -22 52 0 52 0 0 52 0 51 -26 -24 -25
-24 -66 68 c-36 37 -70 67 -76 67 -6 0 21 -33 61 -73z"/>
<path d="M568 438 l52 -53 26 26 c20 20 24 32 19 52 -7 26 -10 27 -78 27 l-72
0 53 -52z m67 12 c0 -20 -18 -22 -40 -4 -20 15 -20 15 3 11 13 -3 20 -1 16 5
-4 6 -1 9 7 6 8 -3 14 -11 14 -18z"/>
<path d="M440 380 l0 -100 -32 0 -33 0 37 -37 37 -37 37 37 37 37 -31 0 -32 0
0 100 c0 60 -4 100 -10 100 -6 0 -10 -40 -10 -100z"/>
<path d="M366 394 c-47 -53 -48 -55 -31 -74 11 -12 31 -20 52 -20 l33 0 0 75
c0 41 -1 75 -2 74 -2 0 -25 -25 -52 -55z"/>
<path d="M480 372 l0 -72 33 0 c22 1 37 8 49 24 16 23 16 24 -33 72 l-49 48 0
-72z m43 -14 c-2 -5 1 -8 7 -8 6 0 8 -5 5 -11 -11 -17 -28 -5 -31 24 -2 21 0
24 11 14 7 -6 11 -15 8 -19z"/>
<path d="M140 180 c0 -5 -16 -10 -35 -10 -24 0 -37 -6 -45 -19 -14 -27 -13
-76 3 -89 9 -8 12 0 12 36 l0 47 43 3 c34 3 42 7 42 23 0 10 -4 19 -10 19 -5
0 -10 -4 -10 -10z"/>
<path d="M473 183 c-7 -2 -13 -12 -12 -21 0 -12 2 -13 6 -4 4 10 8 9 19 -5 12
-17 13 -16 14 10 0 27 -4 30 -27 20z"/>
<path d="M650 177 c51 -26 61 -93 18 -129 -20 -18 -70 -25 -66 -11 0 5 -2 15
-6 25 -4 9 -6 31 -4 50 2 27 7 34 30 36 31 4 52 -26 44 -61 -6 -21 -5 -21 6 2
27 52 -55 112 -89 65 -18 -25 -16 -74 4 -96 9 -10 11 -18 6 -18 -16 0 -30 21
-41 60 -9 32 -10 33 -11 8 -2 -67 48 -105 114 -86 39 11 55 33 55 80 0 43 -35
88 -67 88 -14 0 -12 -3 7 -13z"/>
<path d="M860 180 c0 -5 -22 -10 -49 -10 -36 0 -50 -4 -55 -17 -4 -9 -2 -21 4
-27 7 -7 10 -5 10 7 0 14 10 17 55 17 48 0 55 2 55 20 0 11 -4 20 -10 20 -5 0
-10 -4 -10 -10z"/>
<path d="M723 154 c-3 -8 -1 -26 5 -40 10 -20 19 -24 56 -24 32 0 48 -5 56
-17 10 -16 10 -16 8 2 -3 16 -13 21 -51 26 -51 5 -70 22 -61 52 7 21 -4 23
-13 1z"/>
<path d="M26 144 c-11 -29 -6 -79 10 -102 12 -18 25 -22 70 -22 44 0 54 3 54
17 0 13 -3 14 -12 5 -16 -16 -70 -15 -94 2 -15 11 -19 26 -18 65 1 55 -1 59
-10 35z"/>
<path d="M240 131 c-24 -4 -36 -12 -39 -26 -3 -15 -1 -17 10 -8 8 6 27 13 43
15 16 1 31 9 34 16 2 6 0 11 -5 11 -4 -1 -24 -4 -43 -8z"/>
<path d="M312 83 c-2 -57 0 -63 18 -63 17 0 20 7 20 45 0 38 3 45 20 45 17 0
20 -7 20 -45 0 -38 3 -45 20 -45 17 0 20 7 20 43 0 62 -17 81 -60 70 -33 -9
-35 -12 -40 -59 l-4 -49 -6 60 -7 60 -1 -62z m98 -10 c0 -26 -2 -44 -4 -42 -8
9 -13 98 -5 93 5 -3 9 -26 9 -51z"/>
<path d="M440 125 c0 -8 5 -15 10 -15 6 0 10 -13 10 -29 0 -47 10 -61 41 -61
20 0 29 5 29 16 0 14 -3 14 -15 4 -23 -19 -45 5 -45 50 0 24 -5 40 -15 44 -9
3 -15 0 -15 -9z"/>
<path d="M508 133 c-13 -3 -18 -15 -18 -43 0 -21 4 -41 8 -44 4 -2 6 11 4 30
-3 26 -1 34 12 34 9 0 16 7 16 15 0 8 -1 14 -2 14 -2 -1 -11 -3 -20 -6z"/>
<path d="M177 113 c-12 -11 -7 -48 9 -71 12 -17 25 -22 60 -22 41 0 57 11 34
25 -5 3 -10 1 -10 -4 0 -19 -49 -12 -71 10 -14 14 -19 28 -15 45 7 25 4 29 -7
17z"/>
<path d="M848 104 c27 -19 29 -50 3 -64 -27 -14 -94 -13 -109 2 -9 9 -12 8
-12 -5 0 -14 10 -17 65 -17 58 0 66 3 81 25 15 23 15 27 0 50 -9 14 -24 25
-33 25 -14 0 -13 -3 5 -16z"/>
<path d="M270 92 c0 -7 -14 -12 -35 -12 -34 0 -46 -12 -25 -25 6 -3 10 -2 10
3 0 5 13 7 29 4 31 -4 50 13 32 31 -8 8 -11 8 -11 -1z"/>
</g>
</svg>
