<?xml version="1.0" standalone="no"?>
<!DOCTYPE svg PUBLIC "-//W3C//DTD SVG 20010904//EN"
 "http://www.w3.org/TR/2001/REC-SVG-20010904/DTD/svg10.dtd">
<svg version="1.0" xmlns="http://www.w3.org/2000/svg"
 width="93.000000pt" height="114.000000pt" viewBox="0 0 93.000000 114.000000"
 preserveAspectRatio="xMidYMid meet">
<metadata>
Created by potrace 1.10, written by Peter Selinger 2001-2011
</metadata>
<g transform="translate(0.000000,114.000000) scale(0.100000,-0.100000)"
fill="#ab4c82" stroke="none">
<path d="M495 1110 c-4 -6 -21 -8 -39 -4 -61 11 -187 -70 -226 -145 -50 -95
-52 -103 -51 -209 2 -115 13 -155 69 -239 37 -57 84 -99 147 -130 49 -25 125
-39 125 -24 0 6 -13 11 -29 11 -15 0 -40 9 -54 20 -15 12 -29 20 -31 18 -3 -2
-26 17 -52 40 -44 43 -83 109 -84 144 0 10 -9 22 -19 28 -26 13 -45 104 -35
167 13 90 40 132 130 202 6 5 34 19 63 31 106 46 212 12 268 -86 27 -46 32
-155 9 -199 -34 -66 -138 -103 -195 -69 -42 25 -75 94 -67 139 12 64 91 104
148 74 11 -6 22 -8 25 -6 9 10 -55 37 -86 37 -65 0 -119 -82 -108 -164 4 -31
15 -49 44 -74 41 -37 28 -34 -24 5 -18 13 -33 19 -33 13 0 -20 107 -80 142
-79 l33 2 -30 4 c-53 8 -46 18 9 15 65 -4 120 21 160 72 51 67 63 143 34 203
-6 13 -8 26 -5 29 4 4 16 -13 27 -37 11 -24 17 -33 13 -19 -3 14 -7 36 -9 49
-4 35 -54 103 -89 121 -17 8 -32 17 -35 20 -7 8 -97 30 -121 30 -11 0 -17 5
-14 10 3 6 4 10 1 10 -3 0 -8 -5 -11 -10z"/>
<path d="M603 763 c-15 -5 -18 -33 -4 -33 5 0 11 9 14 20 3 11 4 20 4 19 -1 0
-8 -3 -14 -6z"/>
<path d="M512 298 c-9 -9 -8 -16 5 -30 15 -17 17 -17 35 -2 14 13 15 20 7 31
-14 16 -31 17 -47 1z"/>
<path d="M138 293 c-14 -3 -15 -9 -8 -29 14 -35 14 -34 -23 -34 -51 0 -77 -34
-77 -98 0 -28 5 -63 12 -77 14 -31 52 -43 75 -24 13 11 17 11 20 2 3 -7 12
-13 21 -13 15 0 17 16 17 140 0 87 -4 140 -10 139 -5 -1 -18 -3 -27 -6z m-5
-105 c-2 -5 -3 -35 -3 -67 0 -64 -16 -83 -45 -55 -18 19 -20 105 -3 122 13 13
55 13 51 0z"/>
<path d="M349 293 c-13 -3 -15 -12 -7 -56 5 -29 6 -85 2 -126 -7 -83 -2 -91
58 -91 54 0 88 44 88 114 0 84 -44 122 -93 79 -20 -18 -20 -17 -14 35 6 53 4
56 -34 45z m95 -119 c9 -25 7 -83 -4 -105 -7 -11 -21 -19 -37 -19 -26 0 -26 0
-19 61 3 33 8 65 12 70 9 15 41 10 48 -7z"/>
<path d="M220 212 c-26 -21 -37 -86 -21 -134 13 -39 44 -58 96 -58 27 0 35 4
35 18 0 15 -6 18 -29 14 -20 -3 -35 2 -50 17 -36 36 -27 51 29 51 l50 0 0 35
c0 64 -61 96 -110 57z m71 -39 c8 -21 5 -23 -26 -23 -36 0 -40 5 -29 35 9 23
45 15 55 -12z"/>
<path d="M530 224 c-12 -4 -15 -24 -15 -104 0 -97 1 -100 23 -100 21 0 22 3
22 105 0 58 -3 104 -7 104 -5 -1 -15 -3 -23 -5z"/>
<path d="M608 223 c-10 -2 -18 -14 -18 -25 0 -15 4 -18 18 -13 37 17 67 11 70
-12 3 -20 -1 -23 -27 -23 -59 0 -89 -59 -55 -108 18 -25 46 -29 68 -7 19 19
27 19 20 0 -4 -11 1 -15 17 -15 24 0 24 1 21 92 -3 71 -7 96 -20 106 -15 12
-59 14 -94 5z m70 -125 c-2 -28 -7 -33 -28 -33 -16 0 -26 6 -28 18 -5 23 15
47 40 47 16 0 19 -6 16 -32z"/>
<path d="M770 224 c-12 -4 -14 -22 -12 -104 3 -95 4 -100 25 -100 21 0 22 3
19 73 -4 79 11 116 42 104 15 -6 17 -19 14 -92 -3 -85 -3 -85 22 -85 l25 0 -3
92 c-2 51 -9 99 -14 106 -15 17 -48 15 -70 -5 -17 -15 -18 -15 -18 0 0 17 -3
18 -30 11z"/>
</g>
</svg>
