<?xml version="1.0" standalone="no"?>
<!DOCTYPE svg PUBLIC "-//W3C//DTD SVG 20010904//EN"
 "http://www.w3.org/TR/2001/REC-SVG-20010904/DTD/svg10.dtd">
<svg version="1.0" xmlns="http://www.w3.org/2000/svg"
 width="90.000000pt" height="85.000000pt" viewBox="0 0 90.000000 85.000000"
 preserveAspectRatio="xMidYMid meet">
<metadata>
Created by potrace 1.10, written by Peter Selinger 2001-2011
</metadata>
<g transform="translate(0.000000,85.000000) scale(0.100000,-0.100000)"
fill="#904e74" stroke="none">
<path d="M342 811 c-142 -49 -231 -196 -202 -336 22 -104 110 -199 212 -230
147 -43 315 13 383 130 29 49 27 59 -16 70 -19 5 -28 2 -33 -10 -9 -25 2 -37
25 -25 10 6 19 8 19 4 0 -11 -41 -74 -48 -74 -4 0 -20 -12 -37 -26 -40 -35
-78 -50 -158 -64 -51 -9 -71 -9 -81 -1 -8 7 -18 11 -22 10 -28 -5 -54 2 -48
13 4 6 3 8 -4 5 -15 -10 -43 3 -35 16 3 5 1 7 -4 4 -14 -9 -85 69 -102 110 -7
18 -17 31 -21 28 -5 -3 -6 5 -2 17 3 14 1 19 -6 14 -14 -9 -6 82 14 143 7 24
11 48 7 54 -3 5 -2 7 3 4 6 -3 19 8 29 24 11 16 23 29 28 29 4 0 7 6 7 14 0 7
8 20 18 27 15 13 16 12 3 -3 -9 -12 -10 -18 -2 -18 6 0 11 4 11 9 0 12 97 51
129 52 l26 1 -25 8 c-17 5 -1 8 50 7 50 0 67 -3 50 -7 l-25 -8 26 -1 c32 -1
135 -53 164 -82 l20 -20 -40 -36 c-22 -19 -106 -86 -187 -149 -175 -136 -192
-152 -176 -171 14 -17 88 -56 88 -47 0 4 6 2 13 -4 16 -13 162 -6 162 8 0 1 8
3 17 5 10 2 35 14 55 27 21 12 42 21 48 20 5 -2 7 0 3 4 -4 4 -3 13 3 20 6 7
8 18 4 24 -4 7 -23 -4 -50 -29 -79 -73 -200 -89 -296 -40 l-43 21 30 27 c17
14 114 91 217 170 103 79 187 147 187 152 0 14 -84 80 -97 75 -7 -3 -12 0 -10
7 3 19 -92 46 -163 46 -37 0 -88 -7 -118 -18z m328 -66 c13 -14 21 -25 18 -25
-2 0 -15 11 -28 25 -13 14 -21 25 -18 25 2 0 15 -11 28 -25z m-430 -9 c0 -2
-8 -10 -17 -17 -16 -13 -17 -12 -4 4 13 16 21 21 21 13z"/>
<path d="M353 755 c-106 -48 -168 -142 -161 -243 4 -56 27 -105 55 -116 15 -6
79 37 76 52 -1 5 5 16 15 24 15 12 16 11 3 -4 -19 -25 -4 -22 30 5 16 12 42
32 59 45 17 13 28 27 25 32 -3 5 0 12 6 16 8 4 9 3 5 -4 -15 -24 16 -6 59 36
8 6 17 12 20 12 16 0 93 72 91 85 -7 45 -94 85 -180 84 -31 0 -71 -9 -103 -24z
m225 -24 c28 -14 40 -26 35 -34 -4 -7 -8 -16 -8 -22 0 -5 -8 -9 -16 -7 -9 1
-23 -5 -30 -15 -9 -11 -10 -14 -1 -9 18 11 15 1 -5 -15 -11 -10 -14 -10 -9 -1
11 18 -9 15 -25 -5 -10 -11 -10 -14 -1 -9 19 12 14 1 -10 -20 -19 -15 -20 -16
-9 -1 7 9 9 17 3 17 -13 0 -33 -25 -27 -33 3 -4 2 -5 -1 -2 -10 7 -45 -15 -40
-24 3 -5 -4 -17 -17 -27 -18 -16 -19 -16 -8 -1 7 9 9 17 3 17 -12 0 -34 -25
-27 -32 3 -3 -2 -11 -12 -19 -11 -9 -14 -10 -9 -1 11 18 -1 15 -34 -10 -16
-11 -27 -24 -25 -28 3 -4 -5 -16 -18 -26 -18 -16 -19 -16 -8 -1 7 9 9 17 3 17
-14 0 -33 -25 -25 -33 3 -4 3 -7 0 -7 -4 0 -16 19 -28 42 -30 58 -23 147 16
206 68 102 221 140 333 83z"/>
<path d="M236 272 c-9 -15 26 -39 64 -46 l35 -6 -34 13 c-18 7 -39 21 -46 31
-7 9 -16 13 -19 8z"/>
<path d="M635 250 c-19 -12 -24 -20 -14 -20 9 0 24 9 34 20 23 25 18 25 -20 0z"/>
<path d="M110 106 c0 -36 4 -66 8 -66 11 0 13 118 2 125 -6 4 -10 -20 -10 -59z"/>
<path d="M621 153 c0 -13 -7 -23 -13 -23 -10 0 -10 -2 -1 -8 6 -4 13 -25 16
-47 l4 -40 1 43 c1 26 7 42 15 42 8 0 9 2 1 8 -7 4 -14 16 -17 27 -4 18 -5 18
-6 -2z"/>
<path d="M17 123 c-4 -3 -7 -21 -7 -39 0 -24 5 -34 20 -39 24 -7 60 2 60 16 0
6 -8 5 -21 -1 -22 -12 -49 -7 -49 10 0 5 18 10 40 10 43 0 45 2 30 31 -10 19
-59 27 -73 12z m61 -20 c2 -9 -7 -13 -27 -13 -30 0 -39 9 -24 24 11 10 46 3
51 -11z"/>
<path d="M148 104 c-8 -18 -9 -30 -1 -42 14 -23 57 -27 73 -8 14 18 0 22 -17
5 -13 -13 -43 -5 -43 11 0 5 16 10 35 10 36 0 46 15 23 38 -21 21 -57 14 -70
-14z m70 -1 c2 -9 -7 -13 -27 -13 -30 0 -39 9 -24 24 11 10 46 3 51 -11z"/>
<path d="M251 82 l2 -47 6 40 c5 31 10 40 26 40 16 0 21 -8 23 -37 2 -21 7
-38 11 -38 4 0 6 12 4 28 -4 34 10 57 31 49 10 -4 16 -19 16 -42 0 -19 4 -35
8 -35 5 0 6 19 3 43 l-6 42 -62 2 -63 3 1 -48z"/>
<path d="M412 118 c-15 -15 -15 -51 0 -66 17 -17 53 -15 68 3 15 18 7 19 -20
3 -16 -10 -23 -10 -37 5 -16 16 -15 17 25 17 28 0 42 4 42 13 0 33 -53 50 -78
25z m58 -13 c11 -13 7 -15 -25 -15 -32 0 -36 2 -25 15 7 8 18 15 25 15 7 0 18
-7 25 -15z"/>
<path d="M511 80 l2 -45 6 40 c5 31 10 40 26 40 16 0 21 -8 23 -37 4 -47 22
-50 22 -4 0 40 -17 57 -54 54 -24 -2 -26 -5 -25 -48z"/>
<path d="M672 118 c-16 -16 -15 -53 2 -67 7 -6 28 -10 45 -9 29 2 31 5 31 43
0 39 -1 41 -33 43 -18 1 -38 -3 -45 -10z m62 -20 c8 -14 7 -21 -6 -34 -30 -30
-75 9 -48 42 16 18 39 15 54 -8z"/>
<path d="M770 85 c0 -54 17 -60 22 -8 2 20 8 38 14 40 16 5 43 -71 32 -91 -5
-9 -5 -16 0 -16 5 0 20 27 35 60 14 33 22 60 17 60 -5 0 -14 -17 -21 -37 l-12
-37 -14 37 c-13 31 -20 37 -44 37 -28 0 -29 -2 -29 -45z"/>
</g>
</svg>
