<?xml version="1.0" standalone="no"?>
<!DOCTYPE svg PUBLIC "-//W3C//DTD SVG 20010904//EN"
 "http://www.w3.org/TR/2001/REC-SVG-20010904/DTD/svg10.dtd">
<svg version="1.0" xmlns="http://www.w3.org/2000/svg"
 width="92.000000pt" height="93.000000pt" viewBox="0 0 92.000000 93.000000"
 preserveAspectRatio="xMidYMid meet">
<metadata>
Created by potrace 1.10, written by Peter Selinger 2001-2011
</metadata>
<g transform="translate(0.000000,93.000000) scale(0.100000,-0.100000)"
fill="#ab4c82" stroke="none">
<path d="M316 896 c-21 -8 -56 -32 -78 -53 -85 -82 -87 -133 -9 -203 l50 -44
-39 -33 c-88 -75 -99 -136 -41 -215 17 -23 31 -38 31 -34 0 5 6 4 13 -1 6 -6
25 -10 40 -9 16 1 31 -2 33 -6 3 -4 11 -8 17 -8 7 0 6 4 -3 10 -10 7 -11 10
-2 11 6 1 15 2 20 4 4 1 24 5 44 9 20 4 39 15 42 23 3 8 11 11 17 7 7 -4 9 -3
6 3 -4 6 5 14 19 17 25 7 105 62 112 79 2 4 7 7 12 7 5 0 21 10 36 23 89 73
123 145 96 201 -24 46 -114 131 -172 161 -30 15 -67 34 -82 42 -41 21 -117 25
-162 9z m144 -24 c75 -39 108 -61 145 -95 21 -20 42 -34 46 -31 10 6 48 -44
56 -73 4 -20 -3 -33 -43 -71 -124 -117 -289 -211 -385 -219 -52 -5 -60 -3 -83
20 -14 14 -26 32 -26 38 0 7 6 5 13 -5 12 -16 13 -14 9 18 -4 34 1 40 79 116
55 52 78 80 66 80 -24 0 -130 55 -148 76 -12 15 -12 17 0 9 11 -6 13 -4 8 8
-9 23 50 97 98 124 49 28 118 30 165 5z m-200 -207 c14 -8 21 -14 15 -14 -5 0
-21 6 -35 14 -14 8 -20 14 -15 14 6 0 21 -6 35 -14z m430 -86 c-14 -25 -146
-138 -196 -166 -126 -73 -217 -100 -249 -73 -22 18 -9 30 36 30 22 0 56 7 76
15 20 9 43 13 50 10 9 -3 11 0 7 7 -5 8 -2 9 9 5 9 -3 16 -3 14 2 -1 5 39 36
88 69 50 34 106 76 125 95 37 35 57 39 40 6z"/>
<path d="M361 764 c-2 -37 22 -57 72 -59 31 -1 48 3 51 12 3 8 1 11 -4 8 -6
-3 -10 3 -10 14 0 23 -27 41 -61 41 -22 0 -22 -8 -3 -54 13 -34 -15 -8 -30 27
-11 25 -15 27 -15 11z m69 -4 c0 -5 -4 -10 -10 -10 -5 0 -10 5 -10 10 0 6 5
10 10 10 6 0 10 -4 10 -10z m15 -19 c-3 -6 -11 -11 -17 -11 -6 0 -6 6 2 15 14
17 26 13 15 -4z"/>
<path d="M660 720 c6 -11 13 -20 16 -20 2 0 0 9 -6 20 -6 11 -13 20 -16 20 -2
0 0 -9 6 -20z"/>
<path d="M650 651 c0 -5 -19 -29 -42 -52 -46 -46 -25 -36 30 15 32 30 40 46
22 46 -5 0 -10 -4 -10 -9z"/>
<path d="M505 519 c-4 -6 -5 -12 -2 -15 2 -3 7 2 10 11 7 17 1 20 -8 4z"/>
<path d="M554 478 c-43 -32 -52 -42 -25 -28 26 13 69 50 59 50 -3 0 -18 -10
-34 -22z"/>
<path d="M570 175 c0 -63 4 -105 10 -105 6 0 10 42 10 105 0 63 -4 105 -10
105 -6 0 -10 -42 -10 -105z"/>
<path d="M618 273 c7 -3 16 -2 19 1 4 3 -2 6 -13 5 -11 0 -14 -3 -6 -6z"/>
<path d="M289 248 c-1 -13 0 -54 1 -93 2 -69 13 -100 32 -89 6 4 6 10 -1 17
-15 15 -14 127 1 127 9 0 9 3 0 12 -7 7 -12 20 -12 30 0 26 -20 22 -21 -4z"/>
<path d="M248 253 c7 -3 16 -2 19 1 4 3 -2 6 -13 5 -11 0 -14 -3 -6 -6z"/>
<path d="M19 217 c-9 -104 0 -151 26 -141 11 5 15 -1 15 -20 0 -14 -4 -26 -10
-26 -5 0 -10 7 -10 15 0 8 -7 15 -15 15 -18 0 -19 -11 -2 -34 7 -10 22 -17 33
-14 17 3 19 14 22 109 l3 106 -31 1 c-16 0 -30 -5 -31 -11z m41 -68 c0 -44 -3
-60 -12 -56 -11 3 -14 49 -9 120 1 5 6 5 11 2 6 -3 10 -33 10 -66z"/>
<path d="M114 217 c-3 -8 -4 -43 -2 -78 3 -61 4 -64 28 -64 20 0 26 6 28 28 2
15 -1 27 -7 27 -6 0 -11 -9 -11 -19 0 -33 -17 -33 -22 -1 -4 26 -1 30 19 30
22 0 24 4 21 43 -2 35 -7 43 -26 45 -12 2 -24 -3 -28 -11z m36 -32 c0 -14 -4
-25 -10 -25 -5 0 -10 11 -10 25 0 14 5 25 10 25 6 0 10 -11 10 -25z"/>
<path d="M200 150 c0 -47 4 -80 10 -80 6 0 10 30 10 70 0 40 4 70 10 70 6 0
10 -30 10 -70 0 -40 4 -70 10 -70 6 0 10 33 10 80 l0 80 -30 0 -30 0 0 -80z"/>
<path d="M344 216 c-3 -7 -4 -42 -2 -77 3 -59 5 -64 27 -67 31 -5 41 12 41 68
0 69 -9 90 -36 90 -14 0 -27 -6 -30 -14z m44 -76 c-2 -28 -7 -51 -13 -53 -11
-2 -19 97 -10 122 12 30 26 -15 23 -69z"/>
<path d="M436 214 c-3 -9 -6 -37 -6 -64 0 -63 7 -80 35 -80 28 0 35 17 35 80
0 27 -3 55 -6 64 -8 21 -50 21 -58 0z m42 -68 c-2 -31 -7 -57 -13 -59 -11 -2
-20 97 -10 121 12 32 26 -6 23 -62z"/>
<path d="M620 150 c0 -47 4 -80 10 -80 6 0 10 33 10 80 0 47 -4 80 -10 80 -6
0 -10 -33 -10 -80z"/>
<path d="M665 149 c0 -59 3 -79 13 -79 10 0 13 17 11 67 -2 44 2 68 9 71 9 3
12 -17 12 -67 0 -43 4 -71 10 -71 7 0 10 29 8 78 l-3 77 -30 2 -30 1 0 -79z"/>
<path d="M760 150 l0 -80 30 0 30 0 0 80 c0 47 -4 80 -10 80 -6 0 -10 -30 -10
-69 0 -39 -4 -73 -10 -76 -6 -4 -10 22 -10 69 0 44 -4 76 -10 76 -6 0 -10 -33
-10 -80z"/>
<path d="M847 208 c10 -29 9 -75 -1 -110 -5 -17 -4 -28 2 -28 5 0 13 15 18 33
l8 32 3 -32 c3 -20 10 -33 18 -33 12 0 12 7 1 43 -10 35 -10 50 0 81 10 28 10
36 2 34 -7 -3 -15 -15 -18 -29 l-6 -24 -7 28 c-4 15 -12 27 -18 27 -6 0 -7 -8
-2 -22z"/>
</g>
</svg>
