<?xml version="1.0" standalone="no"?>
<!DOCTYPE svg PUBLIC "-//W3C//DTD SVG 20010904//EN"
 "http://www.w3.org/TR/2001/REC-SVG-20010904/DTD/svg10.dtd">
<svg version="1.0" xmlns="http://www.w3.org/2000/svg"
 width="90.000000pt" height="94.000000pt" viewBox="0 0 90.000000 94.000000"
 preserveAspectRatio="xMidYMid meet">
<metadata>
Created by potrace 1.10, written by Peter Selinger 2001-2011
</metadata>
<g transform="translate(0.000000,94.000000) scale(0.100000,-0.100000)"
fill="#ab4c82" stroke="none">
<path d="M340 910 c-26 -26 -25 -60 2 -95 l21 -27 -24 7 c-13 4 -49 15 -79 25
-30 10 -58 16 -62 14 -12 -8 -45 -108 -53 -160 -10 -81 38 -238 72 -231 6 1
18 -7 26 -18 12 -15 18 -17 29 -7 8 6 19 8 23 4 5 -4 5 -1 1 6 -4 7 -1 12 9
12 9 0 14 4 11 9 -7 10 19 23 28 14 3 -4 6 -15 6 -25 0 -10 18 -36 40 -58 22
-22 40 -37 40 -33 0 3 7 0 15 -7 12 -10 15 -10 15 0 0 7 7 10 16 6 9 -4 13 -2
8 5 -4 7 -1 10 7 7 19 -6 62 43 49 56 -5 5 -10 20 -10 32 0 18 4 21 21 17 16
-4 20 -2 17 8 -3 8 -10 15 -16 15 -7 1 -16 2 -22 3 -5 0 -10 6 -10 12 0 5 4 8
8 5 11 -7 38 11 30 20 -4 3 -29 -7 -55 -24 -48 -30 -117 -62 -135 -62 -6 0 -7
13 -3 31 6 28 5 30 -12 21 -10 -6 -22 -11 -28 -12 -5 -1 -24 -8 -42 -17 -30
-14 -34 -14 -63 7 -31 22 -38 48 -19 67 9 9 9 20 0 44 -24 70 -7 172 31 182
46 12 94 -49 85 -107 -5 -31 -5 -31 34 -28 25 3 48 -2 64 -12 l25 -16 -20 32
c-24 40 -25 50 -4 93 18 38 62 60 99 51 75 -19 101 -206 29 -206 -27 0 -31 15
-9 36 19 20 19 54 -1 82 -31 44 -84 17 -84 -44 0 -29 6 -38 42 -60 23 -15 54
-27 68 -28 23 -1 25 -5 24 -46 -1 -41 2 -47 34 -68 33 -22 84 -35 79 -21 -1 4
7 17 18 29 l20 23 -21 -11 c-12 -6 -24 -19 -28 -27 -3 -9 -11 -13 -17 -10 -7
5 -4 15 9 29 21 22 59 142 48 153 -3 3 -14 -1 -24 -10 -22 -20 -63 -22 -80 -5
-13 13 -16 66 -6 92 9 23 70 21 91 -4 13 -14 20 -17 30 -8 10 8 12 4 9 -21 -2
-20 1 -31 9 -31 11 0 12 19 7 68 -1 7 -6 10 -12 7 -5 -3 -15 7 -21 22 -25 65
-62 133 -73 133 -6 0 -35 -9 -64 -20 -30 -11 -77 -26 -105 -32 -48 -10 -71
-26 -114 -81 -10 -12 -10 -17 0 -20 7 -3 5 -6 -5 -6 -9 -1 -19 8 -23 18 -3 11
-22 34 -42 51 -19 17 -33 34 -30 37 3 3 17 -6 30 -19 l24 -24 22 22 c22 23 27
49 11 59 -18 11 -10 44 14 60 18 12 30 13 50 6 26 -10 32 -27 27 -79 -2 -20 0
-21 19 -10 28 18 26 63 -5 93 -31 32 -96 34 -125 5z m329 -124 c24 -38 28 -68
8 -60 -8 3 -27 0 -43 -6 -21 -8 -30 -8 -32 0 -3 7 -18 27 -34 46 -17 20 -25
34 -17 34 7 0 24 -12 36 -27 l23 -28 -6 27 c-6 27 -3 30 43 47 1 1 11 -14 22
-33z m-441 3 c-20 -13 -28 -11 -22 5 3 8 12 12 21 9 12 -5 12 -7 1 -14z m299
-114 c9 -25 -2 -27 -22 -5 -17 18 -17 20 -1 20 9 0 19 -7 23 -15z m-153 -1
c22 -9 20 -24 -3 -24 -21 0 -34 13 -24 24 8 7 8 7 27 0z m132 -26 c5 -7 3 -8
-7 -3 -12 8 -12 6 0 -8 11 -15 11 -17 -2 -17 -8 0 -17 6 -20 14 -9 24 15 36
29 14z m142 -91 c6 0 12 -4 12 -8 0 -5 6 -6 13 -3 10 3 12 -5 9 -30 -9 -77
-67 -69 -74 9 -3 37 -1 44 12 39 8 -4 21 -7 28 -7z m-136 -108 c5 -33 -20 -65
-63 -81 -27 -10 -24 -1 13 33 l32 29 -31 -12 c-18 -7 -30 -16 -27 -20 11 -17
-34 -7 -50 11 -16 18 -16 19 16 25 18 3 47 15 63 25 40 26 42 26 47 -10z"/>
<path d="M220 679 c-13 -24 -5 -73 16 -90 35 -29 75 66 42 99 -18 18 -46 14
-58 -9z m49 -11 c5 -13 6 -27 3 -32 -6 -10 -20 19 -21 42 -1 20 9 14 18 -10z"/>
<path d="M380 601 c0 -5 11 -11 25 -13 20 -4 23 -3 14 8 -13 16 -39 19 -39 5z"/>
<path d="M234 562 c-12 -8 -14 -53 -1 -45 5 3 6 12 3 20 -4 10 -2 13 7 10 8
-3 14 1 14 9 0 16 -7 17 -23 6z"/>
<path d="M752 553 c-7 -13 -9 -23 -4 -23 5 0 8 -31 8 -70 -1 -38 3 -65 7 -61
4 4 7 46 5 92 -3 74 -4 81 -16 62z"/>
<path d="M350 549 c0 -5 5 -7 10 -4 6 3 10 8 10 11 0 2 -4 4 -10 4 -5 0 -10
-5 -10 -11z"/>
<path d="M725 499 c-4 -6 -5 -12 -2 -15 2 -3 7 2 10 11 7 17 1 20 -8 4z"/>
<path d="M400 489 c0 -5 5 -7 10 -4 6 3 10 8 10 11 0 2 -4 4 -10 4 -5 0 -10
-5 -10 -11z"/>
<path d="M715 380 c-3 -6 1 -7 9 -4 18 7 21 14 7 14 -6 0 -13 -4 -16 -10z"/>
<path d="M535 363 c-14 -11 -15 -14 -4 -10 9 3 22 0 28 -6 8 -8 11 -8 11 1 0
7 -5 12 -11 12 -5 0 -7 5 -4 10 9 14 3 12 -20 -7z"/>
<path d="M10 349 c0 -5 10 -9 22 -7 20 3 21 0 19 -64 -3 -82 9 -108 49 -108
35 0 41 17 8 22 -21 3 -23 9 -26 86 l-3 82 -34 0 c-19 0 -35 -5 -35 -11z"/>
<path d="M220 345 c0 -8 7 -15 15 -15 8 0 15 7 15 15 0 8 -7 15 -15 15 -8 0
-15 -7 -15 -15z"/>
<path d="M180 300 c0 -5 9 -10 20 -10 17 0 20 -7 20 -50 0 -43 -3 -50 -20 -50
-11 0 -20 -4 -20 -10 0 -5 24 -10 54 -10 30 0 58 5 61 10 4 6 -5 10 -19 10
-25 0 -26 2 -26 60 l0 60 -35 0 c-19 0 -35 -4 -35 -10z"/>
<path d="M339 306 c0 0 -1 -31 -2 -69 -1 -46 2 -67 10 -67 8 0 13 21 15 58 3
53 5 57 28 57 23 0 25 -4 28 -57 2 -32 7 -58 13 -58 6 0 9 27 7 68 l-3 67 -47
1 c-27 1 -48 1 -49 0z"/>
<path d="M490 259 c0 -74 11 -88 65 -87 l45 1 0 68 c0 54 -3 69 -15 69 -10 0
-15 -15 -17 -57 -3 -51 -6 -58 -25 -61 -22 -3 -23 0 -23 57 0 48 -3 61 -15 61
-11 0 -15 -12 -15 -51z"/>
<path d="M665 275 l27 -34 -27 -36 c-22 -27 -24 -35 -11 -35 8 0 23 12 33 26
l17 26 19 -26 c10 -14 26 -26 34 -26 12 0 9 9 -12 35 l-27 36 27 34 c21 28 23
35 10 35 -9 0 -25 -10 -35 -22 l-17 -22 -14 22 c-8 12 -22 22 -32 22 -16 0
-15 -4 8 -35z"/>
<path d="M30 87 c-8 -7 -15 -27 -15 -44 0 -36 18 -39 23 -5 2 12 10 22 18 22
17 0 19 20 2 21 -7 0 -4 4 7 9 20 9 20 9 0 9 -11 0 -27 -5 -35 -12z"/>
<path d="M694 83 c-13 -11 -15 -17 -7 -20 8 -3 11 -14 7 -29 -5 -20 -3 -24 17
-23 13 0 18 3 12 6 -18 7 -16 43 2 43 18 0 19 7 2 24 -11 11 -17 11 -33 -1z"/>
<path d="M833 55 c-11 -46 0 -65 11 -20 4 14 11 25 17 25 7 0 9 -10 5 -25 -4
-14 -2 -25 3 -25 11 0 24 48 15 61 -3 6 -13 8 -21 5 -11 -4 -13 -2 -9 9 3 8 2
15 -3 15 -4 0 -12 -20 -18 -45z"/>
<path d="M86 55 c-8 -30 -7 -45 4 -45 6 0 10 9 10 21 0 12 8 23 20 26 28 7 25
23 -4 21 -15 -1 -27 -10 -30 -23z"/>
<path d="M162 68 c-7 -7 -12 -22 -12 -35 0 -34 47 -33 56 1 10 41 -17 61 -44
34z m38 -15 c0 -5 -5 -15 -10 -23 -7 -11 -12 -12 -21 -3 -6 6 -8 16 -5 22 8
12 36 15 36 4z"/>
<path d="M226 63 c-3 -8 -6 -24 -6 -36 1 -19 3 -18 15 8 l15 30 -4 -28 c-2
-15 1 -27 5 -27 5 0 9 9 9 19 0 11 5 23 10 26 7 4 8 -3 4 -21 -5 -19 -4 -25 5
-20 6 4 11 20 11 35 0 24 -4 28 -29 29 -18 0 -32 -5 -35 -15z"/>
<path d="M390 65 c-10 -12 -9 -16 4 -21 23 -9 20 -27 -4 -19 -12 4 -20 2 -20
-5 0 -6 12 -10 27 -8 32 3 44 34 16 41 -14 4 -13 5 5 6 13 0 20 6 17 11 -9 15
-31 12 -45 -5z"/>
<path d="M465 60 c-9 -10 -15 -26 -12 -35 7 -17 57 -21 57 -4 0 6 -9 8 -21 4
-17 -6 -20 -3 -17 12 2 10 13 19 26 21 12 2 22 8 22 13 0 16 -36 9 -55 -11z"/>
<path d="M540 66 c0 -6 -3 -21 -6 -33 -4 -13 -2 -23 4 -23 6 0 12 10 14 22 2
14 12 25 28 29 18 4 21 8 10 12 -23 8 -50 5 -50 -7z"/>
<path d="M615 71 c-3 -7 3 -11 17 -12 23 -1 23 -1 -2 -8 -14 -4 -26 -15 -28
-24 -3 -13 4 -17 28 -17 29 0 31 2 28 32 -3 33 -29 50 -43 29z m25 -41 c0 -5
-7 -10 -16 -10 -8 0 -12 5 -9 10 3 6 10 10 16 10 5 0 9 -4 9 -10z"/>
<path d="M766 59 c-8 -12 -12 -28 -9 -35 6 -15 53 -20 53 -5 0 5 -9 7 -21 4
-17 -5 -20 -2 -17 13 2 11 13 20 26 22 27 4 29 22 3 22 -11 0 -27 -10 -35 -21z"/>
</g>
</svg>
