<?xml version="1.0" standalone="no"?>
<!DOCTYPE svg PUBLIC "-//W3C//DTD SVG 20010904//EN"
 "http://www.w3.org/TR/2001/REC-SVG-20010904/DTD/svg10.dtd">
<svg version="1.0" xmlns="http://www.w3.org/2000/svg"
 width="300.000000pt" height="300.000000pt" viewBox="0 0 300.000000 300.000000"
 preserveAspectRatio="xMidYMid meet">
<metadata>
Created by potrace 1.10, written by Peter Selinger 2001-2011
</metadata>
<g transform="translate(0.000000,300.000000) scale(0.100000,-0.100000)"
fill="#000000" stroke="none">
<path d="M1385 2359 c-143 -7 -250 -27 -359 -66 -287 -103 -577 -337 -686
-553 -65 -129 -80 -271 -40 -389 11 -34 17 -67 14 -73 -4 -7 -3 -8 4 -4 6 4
17 -5 26 -22 16 -31 44 -58 52 -50 7 7 -17 58 -28 58 -4 0 -8 7 -8 15 0 9 -8
25 -19 36 -30 33 -46 183 -29 279 26 144 176 353 335 467 234 167 432 249 648
268 39 3 84 9 100 12 17 3 55 7 85 8 51 1 84 -3 270 -34 134 -22 188 -24 212
-7 30 21 71 20 214 -4 178 -31 307 -80 381 -145 129 -113 203 -356 142 -465
-12 -21 -41 -53 -65 -71 -24 -18 -44 -36 -44 -41 0 -4 -18 -11 -40 -14 -22 -4
-38 -10 -35 -13 2 -4 -6 -7 -18 -8 -60 -1 -68 -3 -61 -15 5 -9 2 -9 -9 1 -15
12 -20 9 -19 -9 0 -3 -50 -6 -111 -8 -62 -1 -116 -7 -121 -12 -6 -6 -15 -10
-20 -10 -6 0 -4 5 4 10 12 8 10 10 -10 11 -14 0 -39 1 -56 2 -35 2 -43 -20 -9
-29 36 -9 245 -10 245 -2 0 5 18 7 40 5 21 -2 37 0 34 5 -3 5 6 6 20 2 15 -3
26 -2 26 4 0 6 9 8 20 5 11 -3 20 0 20 6 0 5 7 8 15 5 8 -4 15 -1 15 6 0 7 7
10 16 6 10 -4 13 -2 8 6 -5 8 -2 9 10 5 22 -9 54 7 85 41 13 15 20 21 16 13
-6 -9 -4 -12 4 -7 6 4 9 11 6 16 -6 9 13 25 30 25 6 0 10 7 10 15 1 8 6 14 13
13 6 -2 9 4 6 12 -4 9 -1 21 5 29 6 7 14 40 17 72 12 113 -46 269 -138 369
-92 101 -221 156 -458 196 -132 22 -136 22 -175 4 -46 -21 -63 -21 -235 5
-169 25 -204 27 -355 19z m1215 -803 c0 -2 -7 -7 -16 -10 -8 -3 -12 -2 -9 4 6
10 25 14 25 6z m-283 -52 c-3 -3 -12 -4 -19 -1 -8 3 -5 6 6 6 11 1 17 -2 13
-5z"/>
<path d="M1370 2259 c-117 -9 -166 -18 -228 -41 -29 -11 -60 -17 -68 -14 -9 3
-12 1 -9 -4 3 -6 0 -10 -7 -10 -20 0 -117 -41 -181 -77 -33 -18 -63 -33 -68
-33 -5 0 -9 -4 -9 -10 0 -5 -6 -10 -14 -10 -8 0 -16 -3 -18 -7 -1 -5 -28 -24
-58 -44 -64 -42 -170 -146 -208 -204 -15 -22 -29 -42 -32 -45 -13 -11 -51
-104 -66 -158 -18 -70 -16 -174 4 -227 22 -58 86 -148 129 -184 39 -32 109
-69 153 -79 51 -13 204 -6 242 11 80 36 161 146 172 233 13 106 -64 238 -166
284 -54 25 -156 27 -204 4 -39 -19 -107 -91 -99 -104 4 -6 2 -10 -4 -10 -17 0
-6 -115 15 -151 38 -66 159 -101 223 -63 15 9 33 29 40 45 11 26 11 33 -3 48
-9 10 -16 23 -16 30 0 7 -4 10 -9 6 -5 -3 -12 -1 -16 5 -3 5 -20 8 -38 6 -40
-5 -62 10 -46 30 28 34 139 0 139 -42 0 -8 4 -14 8 -14 5 0 9 -17 10 -38 5
-111 -148 -155 -262 -75 -81 58 -109 172 -62 263 24 49 87 99 124 100 12 0 22
4 22 9 0 16 125 4 183 -19 86 -33 167 -115 197 -200 26 -74 47 -110 64 -110 7
0 37 -14 68 -30 71 -39 79 -30 81 82 2 96 20 130 76 149 39 13 149 6 182 -11
36 -20 81 -62 171 -160 27 -29 49 -44 101 -66 20 -9 52 -24 71 -34 59 -30 88
10 46 63 -11 14 -20 32 -20 39 0 8 -3 18 -7 22 -13 13 -33 82 -33 117 0 32 5
39 33 53 21 9 47 13 68 10 81 -13 248 -13 326 1 72 12 108 26 210 78 13 7 23
18 23 25 0 6 4 12 9 12 17 0 25 62 10 71 -12 7 -11 14 3 39 17 30 17 34 -2 90
-11 33 -20 64 -20 69 0 28 -74 122 -113 145 -51 29 -148 62 -214 72 -26 3 -52
9 -58 12 -5 4 -14 7 -20 8 -5 1 -21 5 -35 8 -98 23 -109 23 -125 6 -8 -9 -15
-22 -15 -30 0 -16 -76 -7 -170 20 -117 34 -330 51 -480 39z m278 -30 c110 -12
256 -41 337 -68 l55 -18 0 38 c0 22 2 39 5 39 3 0 59 -11 125 -25 226 -48 336
-92 370 -148 11 -18 33 -71 49 -119 l30 -88 -42 -24 c-91 -53 -157 -59 -260
-25 -63 21 -157 69 -190 97 -27 23 -30 8 -8 -35 17 -34 31 -44 93 -70 168 -71
229 -76 337 -27 30 13 56 22 58 20 2 -2 -3 -20 -11 -40 -12 -30 -27 -42 -79
-67 -109 -50 -188 -62 -380 -55 l-167 7 -25 -25 c-20 -20 -25 -35 -25 -75 0
-59 27 -138 65 -187 15 -20 25 -37 24 -39 -2 -2 -42 15 -89 37 -72 34 -98 53
-171 129 -102 106 -151 132 -249 133 -124 1 -176 -55 -174 -186 1 -43 0 -78
-2 -78 -3 0 -36 16 -74 35 -57 28 -70 40 -70 59 0 42 -59 142 -115 195 -80 76
-130 96 -240 96 -105 0 -151 -19 -207 -85 -73 -85 -75 -196 -6 -291 77 -104
270 -119 328 -25 42 69 16 167 -54 200 -65 31 -136 11 -136 -38 0 -34 26 -51
79 -51 40 0 46 -3 55 -28 14 -40 -17 -68 -81 -74 -56 -6 -102 20 -140 76 -74
109 39 253 186 239 126 -12 216 -107 228 -238 5 -47 1 -67 -19 -111 -72 -155
-253 -208 -432 -126 -147 68 -231 229 -206 396 40 260 345 528 727 636 152 43
318 54 501 34z"/>
<path d="M2335 2076 c-132 -59 -98 -246 45 -246 144 0 177 189 43 246 -39 17
-50 17 -88 0z m110 -48 c15 -14 28 -38 32 -60 5 -33 2 -41 -30 -73 -36 -36
-63 -43 -100 -24 -63 32 -75 102 -28 150 37 37 88 39 126 7z"/>
<path d="M2363 1984 c-3 -9 0 -20 8 -25 35 -22 93 3 67 29 -18 18 -68 15 -75
-4z"/>
<path d="M2033 1462 c4 -18 16 -45 28 -61 13 -18 18 -34 14 -43 -5 -7 -5 -10
0 -6 4 4 23 -4 41 -18 39 -30 80 -34 438 -37 l219 -2 0 -55 c1 -137 0 -139
-89 -207 -23 -18 -28 -28 -26 -57 2 -33 0 -36 -25 -37 -15 -1 -32 -1 -36 0 -4
1 -45 3 -90 5 -45 3 -88 5 -94 5 -7 1 -13 6 -13 11 0 6 24 10 54 10 81 0 106
12 106 53 0 48 -15 57 -92 57 -54 0 -68 3 -68 15 0 12 17 15 89 15 65 0 92 4
101 15 18 22 19 47 1 79 l-16 28 -128 -4 c-163 -6 -165 -7 -168 -131 -1 -48
-6 -90 -10 -93 -5 -3 -9 1 -9 9 0 8 -9 26 -21 41 -19 24 -26 26 -105 26 -64 0
-84 3 -84 14 0 10 20 14 82 15 89 2 107 12 108 63 0 43 -31 56 -135 57 -74 1
-96 -3 -123 -19 -66 -40 -81 -156 -27 -206 32 -29 55 -35 122 -31 29 2 58 0
64 -4 21 -13 -10 -20 -95 -22 -67 -2 -88 -6 -105 -21 -27 -24 -27 -50 1 -76
19 -18 35 -20 140 -20 112 0 120 1 143 24 13 13 27 36 31 51 5 20 9 23 15 13
5 -7 9 -23 9 -35 0 -43 34 -53 170 -53 75 0 130 4 136 10 6 6 32 13 58 15 47
4 48 3 41 -23 -7 -30 -49 -72 -71 -72 -8 0 -13 -3 -11 -7 6 -9 -1782 -8 -1828
1 -23 5 -27 3 -15 -5 12 -9 11 -10 -7 -6 -15 3 -30 -4 -50 -25 -57 -61 -149
-79 -186 -36 -46 52 -100 74 -224 90 -7 1 -10 5 -8 9 3 3 -2 12 -10 19 -27 22
-48 118 -41 184 11 104 47 155 129 180 25 8 21 26 -5 26 -93 0 -172 -149 -152
-286 5 -33 8 -67 8 -76 0 -9 3 -15 7 -12 5 2 13 -5 19 -16 6 -11 8 -20 4 -20
-3 0 -1 -6 6 -14 6 -8 17 -13 25 -10 7 3 16 0 21 -7 5 -8 3 -10 -7 -5 -8 4 -5
0 6 -9 11 -9 28 -14 38 -11 10 2 14 0 11 -6 -4 -7 11 -8 46 -3 34 5 50 4 46
-3 -3 -5 2 -9 12 -8 10 0 16 -5 14 -14 -2 -8 0 -12 4 -8 9 10 35 -12 28 -23
-3 -5 0 -8 8 -7 7 2 12 -3 10 -10 -1 -8 2 -11 8 -7 5 3 10 2 10 -2 0 -9 30
-15 60 -13 8 0 24 0 35 1 25 0 67 27 61 38 -9 14 61 74 76 65 15 -10 1848 -12
1842 -2 -2 3 4 4 13 2 10 -3 27 2 38 11 11 9 14 13 6 9 -10 -5 -12 -3 -7 5 5
7 14 10 22 7 7 -3 16 0 20 6 5 7 2 8 -6 3 -8 -5 -11 -3 -8 6 3 8 11 13 17 12
6 -2 10 0 10 5 -3 18 2 33 9 28 15 -9 -4 88 -26 134 -31 64 -29 74 12 66 24
-5 37 -2 46 9 7 8 9 15 5 15 -5 0 -1 8 8 18 8 9 21 30 27 47 12 33 15 170 4
200 -5 13 -4 16 4 11 18 -11 14 0 -5 15 -13 11 -15 11 -9 1 7 -11 -44 -13
-300 -7 -361 8 -363 9 -405 93 -35 70 -54 89 -46 44z m184 -278 c14 -37 -10
-49 -106 -52 l-92 -3 3 -32 3 -32 91 -3 c115 -3 129 -15 128 -104 -1 -91 -11
-97 -163 -99 -95 -1 -125 2 -132 12 -24 38 -2 48 111 51 l105 3 3 38 3 37 -87
0 c-76 0 -91 3 -111 22 -34 32 -33 119 2 153 23 23 31 25 130 25 89 0 107 -3
112 -16z m361 4 c16 -16 15 -23 -4 -43 -13 -13 -35 -16 -107 -14 l-90 2 -1
-37 -1 -36 77 0 c63 0 79 -3 87 -17 6 -11 6 -24 -1 -36 -8 -16 -20 -18 -85
-16 l-76 2 -1 -36 -1 -36 105 -3 105 -3 3 -27 c2 -18 -1 -28 -10 -28 -98 -3
-260 0 -268 5 -11 7 -14 317 -3 328 12 13 258 8 271 -5z m91 -272 c23 -28 -17
-68 -45 -45 -17 14 -18 31 -2 47 16 16 33 15 47 -2z"/>
<path d="M2646 893 c-6 -14 -5 -15 5 -6 7 7 10 15 7 18 -3 3 -9 -2 -12 -12z"/>
<path d="M1272 1216 c-17 -9 -61 -54 -63 -65 -7 -45 -6 -111 1 -111 6 0 10 -5
10 -11 0 -13 19 -32 47 -47 12 -7 54 -12 94 -12 101 0 76 -17 -33 -22 -66 -3
-92 -9 -107 -22 -11 -10 -18 -23 -15 -27 3 -5 0 -9 -5 -9 -7 0 -11 29 -11 74
0 108 -13 121 -116 118 -52 -2 -84 -7 -93 -17 -13 -12 -16 -12 -27 3 -19 26
-138 20 -176 -8 -24 -18 -29 -18 -34 -6 -14 38 -162 44 -198 9 l-20 -20 -17
21 c-15 18 -28 21 -85 20 -91 -1 -104 -16 -104 -126 0 -70 3 -82 25 -103 20
-21 34 -25 84 -25 52 0 62 3 79 25 11 14 22 25 25 25 3 0 4 -22 2 -49 -3 -37
1 -55 14 -70 35 -41 76 -20 77 39 0 34 0 35 42 32 34 -3 46 1 69 24 16 16 29
22 31 15 12 -36 137 -56 162 -26 16 19 5 62 -18 68 -11 3 -8 5 9 6 14 0 30 6
37 13 9 9 12 4 12 -23 0 -37 23 -79 44 -79 29 0 46 36 47 103 2 70 7 81 32 71
10 -4 15 -23 16 -67 2 -77 7 -94 32 -102 19 -6 49 14 49 34 0 17 11 13 31 -13
18 -23 25 -25 139 -25 117 -1 120 0 151 27 26 23 31 36 36 87 4 52 2 65 -19
95 -23 35 -25 35 -111 40 -113 6 -118 24 -8 28 72 2 86 6 102 25 23 28 23 39
0 68 -18 22 -26 24 -121 24 -56 0 -109 -4 -118 -9z m226 -45 c5 -34 -12 -41
-111 -41 l-88 0 3 -32 3 -33 92 -3 c87 -3 93 -4 114 -30 17 -22 20 -37 17 -80
-7 -85 -21 -93 -159 -93 -63 0 -120 0 -126 1 -8 0 -13 13 -13 30 l0 29 108 3
107 3 3 38 3 37 -87 0 c-76 0 -91 3 -111 22 -34 32 -33 119 2 154 24 24 29 25
132 22 105 -3 108 -4 111 -27z m-1010 -117 c20 -13 22 -24 22 -94 0 -70 -2
-81 -22 -94 -12 -9 -41 -16 -63 -16 -22 0 -51 7 -63 16 -20 13 -22 24 -22 94
0 70 2 81 22 94 12 9 41 16 63 16 22 0 51 -7 63 -16z m108 6 c8 -8 20 -7 39 0
38 15 82 4 91 -22 8 -27 8 -129 0 -156 -8 -25 -53 -37 -90 -22 -15 5 -29 10
-32 10 -2 0 -4 -25 -4 -55 0 -48 -2 -55 -20 -55 -19 0 -20 7 -20 148 0 161 5
183 36 152z m344 -10 c22 -22 27 -79 8 -98 -7 -7 -38 -12 -71 -12 -55 0 -58
-1 -55 -22 2 -19 10 -24 43 -26 60 -4 70 -9 55 -27 -8 -9 -30 -15 -56 -15 -64
0 -84 26 -84 110 0 91 15 108 98 109 29 1 48 -5 62 -19z m87 9 c7 -7 22 -7 51
2 35 10 45 10 67 -5 25 -16 26 -20 23 -109 -2 -74 -6 -92 -18 -92 -12 0 -16
18 -20 85 l-5 85 -34 3 c-18 2 -38 -1 -43 -6 -6 -6 -11 -46 -12 -89 -1 -62 -4
-78 -16 -78 -12 0 -16 20 -18 108 -3 103 2 119 25 96z"/>
<path d="M384 1016 c-3 -7 -4 -38 -2 -67 l3 -54 43 -3 42 -3 0 70 0 71 -40 0
c-25 0 -43 -5 -46 -14z m57 -13 c0 -5 2 -19 4 -33 5 -35 -4 -60 -21 -60 -10 0
-14 13 -14 50 0 38 4 50 15 50 8 0 15 -3 16 -7z"/>
<path d="M604 1016 c-3 -7 -4 -38 -2 -67 l3 -54 39 -3 c24 -2 42 2 47 10 10
15 12 89 3 112 -8 21 -82 22 -90 2z m46 -16 c0 10 3 11 11 3 17 -17 7 -86 -13
-89 -10 -1 -18 3 -19 9 0 7 -2 23 -3 37 -4 35 4 56 15 38 7 -10 9 -10 9 2z"/>
<path d="M827 1024 c-4 -4 -7 -16 -7 -26 0 -15 8 -18 51 -18 47 0 50 2 47 23
-2 18 -10 23 -43 25 -23 2 -44 0 -48 -4z"/>
<path d="M1580 1205 c-18 -19 -20 -35 -20 -158 l0 -137 33 -36 c65 -71 213
-73 286 -4 l31 30 0 143 c-1 157 -8 179 -57 181 -51 2 -63 -28 -62 -153 1
-119 -4 -139 -27 -120 -8 6 -14 7 -14 2 0 -17 -59 -11 -64 6 -3 9 -5 62 -5
119 0 84 -3 107 -18 125 -23 28 -57 29 -83 2z m75 -27 c3 -13 6 -75 8 -138 l2
-115 63 -3 c92 -4 94 -2 91 140 -3 126 2 142 42 136 24 -3 24 -5 27 -135 4
-194 -17 -219 -174 -211 -65 3 -77 7 -101 31 -27 27 -28 31 -31 158 -4 140 1
159 44 159 16 0 25 -7 29 -22z"/>
</g>
</svg>
