<?xml version="1.0" standalone="no"?>
<!DOCTYPE svg PUBLIC "-//W3C//DTD SVG 20010904//EN"
 "http://www.w3.org/TR/2001/REC-SVG-20010904/DTD/svg10.dtd">
<svg version="1.0" xmlns="http://www.w3.org/2000/svg"
 width="300.000000pt" height="295.000000pt" viewBox="0 0 300.000000 295.000000"
 preserveAspectRatio="xMidYMid meet">
<metadata>
Created by potrace 1.10, written by Peter Selinger 2001-2011
</metadata>
<g transform="translate(0.000000,295.000000) scale(0.100000,-0.100000)"
fill="#53216b" stroke="none">
<path d="M1365 2599 c-115 -11 -244 -51 -370 -114 -678 -339 -814 -1250 -267
-1777 215 -206 467 -308 764 -308 304 0 563 107 779 320 373 369 431 952 140
1392 -183 275 -477 454 -802 488 -111 11 -127 11 -244 -1z m253 -24 c137 -15
331 -76 382 -120 14 -13 20 -15 38 -15 5 0 17 -8 28 -19 11 -10 40 -31 65 -46
58 -37 223 -206 256 -264 15 -25 30 -48 33 -51 12 -11 71 -133 66 -137 -3 -3
1 -11 8 -18 12 -13 68 -205 65 -222 -1 -4 1 -24 4 -43 11 -56 17 -181 9 -176
-4 2 -7 -24 -7 -57 0 -80 -12 -144 -41 -235 -24 -71 -92 -219 -114 -245 -6 -6
-25 -34 -42 -60 -36 -56 -185 -208 -229 -234 -16 -9 -29 -21 -29 -25 0 -4 -4
-8 -10 -8 -5 0 -29 -13 -52 -29 -24 -16 -46 -27 -50 -25 -5 3 -8 0 -8 -5 0 -6
-8 -11 -18 -11 -10 0 -27 -7 -39 -15 -23 -16 -150 -60 -200 -70 -98 -18 -165
-26 -236 -27 -77 0 -184 9 -198 18 -4 2 -24 6 -45 10 -77 12 -229 72 -309 123
-22 14 -52 32 -67 41 -54 31 -176 146 -229 215 -13 17 -26 32 -29 35 -4 3 -27
39 -52 80 -158 265 -198 568 -112 868 37 133 122 293 203 386 56 64 165 166
178 166 7 0 13 4 13 9 0 20 255 159 268 146 3 -2 10 -1 16 4 25 19 167 54 251
61 87 7 130 6 233 -5z"/>
<path d="M1710 1896 c-85 -29 -195 -68 -245 -85 -49 -18 -148 -52 -220 -76
-215 -72 -228 -77 -302 -112 -72 -35 -78 -126 -10 -177 18 -13 106 -60 197
-104 l165 -80 85 -172 c95 -192 139 -250 188 -250 61 0 86 38 155 230 35 96
69 194 77 218 7 23 17 42 22 42 5 0 7 4 4 9 -3 4 19 77 50 162 132 370 132
372 85 420 -41 41 -69 38 -251 -25z m240 14 c12 -12 20 -33 20 -52 0 -27 -72
-238 -296 -868 -34 -95 -49 -116 -92 -127 -45 -11 -73 25 -174 223 l-97 189
-183 91 c-145 71 -188 97 -205 124 -58 85 -39 99 342 231 176 61 381 132 455
159 151 54 200 60 230 30z"/>
</g>
</svg>
