<?xml version="1.0" standalone="no"?>
<!DOCTYPE svg PUBLIC "-//W3C//DTD SVG 20010904//EN"
 "http://www.w3.org/TR/2001/REC-SVG-20010904/DTD/svg10.dtd">
<svg version="1.0" xmlns="http://www.w3.org/2000/svg"
 width="2000.000000pt" height="2357.000000pt" viewBox="0 0 2000.000000 2357.000000"
 preserveAspectRatio="xMidYMid meet">
<metadata>
Created by potrace 1.14, written by Peter Selinger 2001-2017
</metadata>
<g transform="translate(0.000000,2357.000000) scale(0.100000,-0.100000)"
fill="#000000" stroke="none">
<path d="M9770 22163 c-335 -24 -700 -110 -990 -235 -455 -195 -854 -529
-1140 -955 -311 -464 -474 -1012 -521 -1748 -14 -225 -7 -751 15 -1145 25
-433 35 -726 46 -1265 11 -554 20 -756 50 -1113 12 -141 20 -322 20 -454 l0
-220 -45 -107 c-65 -153 -188 -373 -260 -466 -34 -44 -363 -456 -729 -915
-700 -877 -797 -1004 -922 -1214 -153 -255 -231 -459 -360 -941 -129 -478
-214 -727 -377 -1110 -94 -219 -347 -732 -532 -1080 -290 -545 -348 -679 -391
-910 -25 -135 -15 -410 20 -560 28 -121 105 -355 116 -355 4 0 20 18 35 41 53
75 190 196 268 234 242 119 532 71 802 -134 83 -62 206 -190 302 -313 299
-382 904 -1286 1133 -1693 13 -22 30 -52 39 -67 9 -15 54 -91 100 -170 150
-253 278 -464 350 -577 39 -60 71 -112 71 -116 0 -3 11 -22 23 -43 59 -93 367
-703 367 -726 0 -3 11 -29 24 -58 35 -77 59 -132 62 -143 1 -5 18 -50 36 -100
19 -49 45 -124 57 -165 13 -41 28 -84 33 -94 6 -11 12 -33 15 -50 2 -17 15
-80 29 -141 13 -60 26 -141 28 -180 3 -38 5 -70 6 -70 8 0 3 -130 -7 -199 -8
-49 -12 -91 -9 -93 2 -2 -9 -55 -25 -116 -95 -365 -375 -683 -711 -806 -56
-21 -163 -53 -188 -57 -8 -1 -40 -6 -70 -10 -98 -15 -336 -6 -445 16 -55 11
-111 22 -125 24 -24 3 -168 40 -200 52 -8 3 -17 6 -20 6 -3 1 -21 8 -40 16
-19 8 -37 14 -40 14 -3 1 -9 2 -15 4 -5 2 -62 20 -125 39 -63 20 -124 40 -135
45 -25 11 -295 101 -315 105 -8 2 -17 4 -20 5 -3 1 -8 2 -12 1 -4 0 -20 4 -35
11 -15 6 -37 13 -48 15 -11 2 -31 7 -45 12 -22 8 -74 21 -150 36 -14 2 -52 12
-85 20 -68 18 -170 40 -230 49 -22 3 -51 8 -65 11 -14 2 -41 7 -60 9 -19 3
-46 8 -60 11 -14 2 -56 9 -95 15 -38 6 -79 12 -90 14 -69 11 -105 16 -140 21
-22 3 -51 7 -65 10 -14 2 -41 7 -60 9 -19 3 -46 8 -60 11 -14 3 -72 12 -130
20 -58 9 -114 18 -125 20 -11 3 -33 7 -50 9 -84 14 -172 30 -285 53 -69 14
-136 27 -150 29 -14 3 -41 10 -60 16 -19 7 -39 13 -45 14 -19 3 -130 28 -140
30 -39 12 -135 31 -135 27 0 -3 -6 -1 -12 5 -11 8 -29 14 -88 27 -3 1 -21 5
-40 10 -19 5 -42 10 -50 10 -8 1 -22 4 -30 8 -18 7 -241 64 -285 73 -28 5 -66
20 -122 47 -13 6 -26 8 -29 4 -3 -3 -23 3 -42 14 -20 10 -42 19 -49 19 -7 0
-13 5 -13 10 0 6 -10 10 -23 10 -24 0 -155 89 -170 115 -4 9 -12 13 -18 10 -5
-4 -9 1 -9 10 0 8 -7 18 -15 21 -8 3 -24 26 -37 50 -12 24 -25 44 -30 44 -4 0
-8 9 -8 21 0 11 -5 17 -10 14 -6 -4 -13 7 -16 24 -4 17 -9 31 -13 31 -6 0 -10
17 -13 58 -1 6 -5 12 -10 12 -4 0 -8 11 -8 24 0 13 -6 36 -14 52 -11 19 -12
33 -5 46 7 12 6 18 -1 18 -6 0 -9 4 -6 9 4 5 2 20 -3 34 -5 14 -7 28 -4 31 9
8 10 106 2 106 -3 0 -3 19 1 43 4 23 11 71 14 106 4 36 9 68 12 72 2 4 7 27
10 51 4 24 10 51 16 61 5 9 6 22 3 27 -3 6 -1 10 5 10 6 0 10 6 9 13 -1 6 3
25 10 41 6 16 10 35 7 42 -3 8 -1 16 4 19 10 6 32 77 34 110 1 11 6 26 10 34
5 8 10 29 11 47 2 18 6 38 11 46 5 7 7 25 5 40 -1 16 2 28 9 28 7 0 8 6 0 19
-12 24 -13 34 -2 27 5 -3 7 16 6 42 -1 26 -2 66 -3 90 -1 23 -5 42 -9 42 -4 0
-8 -10 -8 -22 1 -46 -16 -176 -35 -277 -31 -157 -79 -291 -179 -498 -162 -332
-192 -423 -193 -583 -1 -163 44 -272 155 -375 109 -100 213 -147 513 -230 72
-20 294 -88 494 -151 539 -171 588 -184 1596 -414 661 -151 1013 -257 1415
-426 526 -221 657 -268 860 -311 109 -24 148 -27 305 -27 148 0 198 4 282 22
271 59 508 183 705 370 181 173 289 339 395 607 l19 49 160 33 c201 41 489 89
619 103 167 18 561 29 655 18 47 -5 238 -11 425 -13 731 -7 1496 -93 2245
-251 91 -19 322 -74 513 -121 l348 -85 24 -54 c101 -228 346 -430 682 -563
589 -233 1148 -185 1652 143 157 102 282 208 576 491 381 365 583 535 845 714
254 172 402 254 1040 572 679 339 810 420 994 609 101 104 187 226 238 337 54
119 50 270 -11 392 l-27 53 -14 -58 c-7 -33 -15 -65 -16 -72 -1 -7 -8 -20 -15
-28 -7 -9 -14 -25 -16 -35 -4 -25 -51 -119 -69 -137 -8 -7 -14 -20 -14 -28 0
-8 -4 -14 -10 -14 -5 0 -10 -4 -10 -9 0 -4 -16 -25 -35 -45 -19 -21 -35 -41
-35 -46 0 -9 -58 -70 -67 -70 -4 0 -24 -18 -45 -40 -22 -22 -43 -40 -46 -40
-4 0 -32 -23 -62 -50 -30 -28 -72 -59 -92 -69 -21 -10 -35 -21 -32 -24 3 -3
-11 -10 -30 -17 -20 -6 -36 -16 -36 -21 0 -5 -7 -9 -15 -9 -8 0 -15 -4 -15
-10 0 -5 -3 -9 -7 -8 -5 1 -46 -18 -93 -42 -47 -24 -87 -45 -90 -45 -3 -1 -26
-11 -51 -22 -26 -12 -91 -37 -145 -57 -55 -20 -121 -45 -148 -56 -27 -11 -53
-17 -57 -14 -5 3 -9 1 -9 -4 0 -5 -6 -9 -12 -9 -7 0 -47 -11 -88 -23 -41 -13
-77 -24 -80 -25 -3 0 -23 -7 -45 -15 -22 -7 -49 -14 -60 -16 -11 -1 -33 -8
-50 -15 -16 -6 -36 -14 -42 -16 -7 -1 -19 -5 -25 -6 -7 -2 -25 -7 -40 -12 -16
-4 -28 -10 -28 -14 0 -4 -6 -8 -12 -9 -22 -1 -51 -10 -123 -37 -38 -14 -74
-27 -80 -28 -5 -2 -16 -6 -22 -10 -7 -5 -13 -5 -13 -1 0 3 -7 1 -15 -6 -8 -7
-15 -9 -15 -4 0 5 -4 5 -8 -1 -4 -5 -25 -18 -47 -29 -22 -10 -52 -25 -67 -33
-16 -8 -28 -11 -28 -8 0 4 -12 -2 -27 -13 -16 -10 -59 -36 -98 -57 -38 -21
-90 -49 -115 -63 -25 -13 -55 -30 -67 -37 -13 -6 -20 -15 -16 -18 3 -4 -1 -7
-10 -7 -8 0 -22 -6 -29 -13 -7 -7 -29 -22 -48 -33 -19 -10 -43 -27 -54 -37
-11 -9 -25 -17 -32 -17 -7 0 -14 -4 -16 -8 -2 -5 -30 -26 -63 -47 -33 -22 -65
-45 -72 -51 -6 -6 -34 -25 -62 -43 -28 -18 -51 -37 -51 -41 0 -5 -10 -12 -22
-16 -12 -3 -32 -19 -46 -35 -13 -16 -28 -27 -33 -24 -4 3 -17 -3 -29 -15 -11
-11 -20 -18 -20 -15 0 3 -14 -7 -31 -22 -17 -16 -34 -27 -37 -27 -4 1 -23 -11
-42 -28 -45 -37 -53 -42 -70 -46 -8 -2 -20 -12 -28 -23 -7 -10 -19 -19 -26
-19 -7 0 -22 -9 -35 -21 -12 -12 -28 -22 -34 -23 -14 -2 -88 -55 -99 -71 -4
-5 -8 -6 -8 -1 0 4 -11 1 -25 -8 -14 -9 -25 -13 -25 -9 0 5 -5 0 -11 -10 -6
-9 -14 -15 -19 -12 -5 3 -15 -3 -21 -14 -7 -10 -19 -17 -26 -14 -7 3 -13 1
-13 -4 0 -5 -6 -10 -14 -10 -17 0 -125 -53 -144 -70 -17 -17 -25 -17 -16 0 4
6 -2 4 -13 -6 -11 -9 -25 -17 -31 -17 -7 0 -12 -5 -12 -11 0 -6 -9 -8 -20 -4
-12 4 -20 2 -20 -5 0 -7 -8 -10 -20 -7 -11 3 -18 2 -15 -3 3 -4 -12 -11 -33
-16 -43 -9 -51 -11 -54 -14 -2 -1 -10 -3 -18 -5 -8 -2 -55 -13 -105 -25 -72
-17 -130 -23 -289 -26 -109 -2 -204 0 -210 5 -6 4 -24 11 -41 14 -16 3 -39 9
-50 12 -16 6 -17 5 -5 -4 8 -6 10 -11 4 -11 -6 0 -14 3 -18 7 -3 4 -13 8 -21
10 -28 6 -50 11 -50 13 0 1 -11 3 -24 6 -14 2 -30 9 -36 14 -7 6 -20 8 -29 4
-9 -3 -16 -1 -16 4 0 6 -16 14 -35 18 -19 3 -35 10 -35 16 0 5 -4 7 -9 3 -5
-3 -12 -1 -16 5 -3 5 -15 10 -26 10 -10 0 -19 5 -19 11 0 5 -4 7 -10 4 -6 -3
-10 -1 -10 4 0 6 -5 11 -11 11 -12 0 -102 61 -107 73 -2 4 -8 5 -13 1 -5 -3
-9 3 -10 13 0 10 -3 13 -6 6 -3 -8 -22 4 -51 32 -25 25 -50 45 -55 45 -4 0 -5
5 -2 10 3 6 -1 13 -9 16 -16 6 -80 86 -104 130 -7 13 -17 24 -23 24 -5 0 -8 3
-7 8 1 4 -8 26 -20 49 -27 51 -73 171 -76 198 -2 11 -8 30 -14 41 -6 12 -9 24
-6 26 2 3 0 17 -6 32 -17 47 -41 224 -40 301 0 22 1 85 1 140 0 116 5 216 14
306 4 35 8 87 10 114 5 60 14 165 20 220 2 22 6 83 10 135 3 52 8 113 10 135
11 109 5 592 -10 795 -2 30 -7 132 -10 225 -3 94 -8 185 -11 204 -3 19 -7 226
-9 460 -2 234 -6 464 -9 511 -3 47 -8 155 -11 240 -3 85 -8 182 -10 215 -7 88
-17 323 -15 372 0 24 -2 43 -5 43 -12 0 -56 -110 -70 -177 -19 -89 -19 -180 2
-470 18 -267 24 -1104 9 -1348 l-8 -139 -92 -96 c-143 -149 -606 -595 -761
-733 -393 -349 -747 -598 -1101 -775 -993 -497 -2221 -518 -3274 -55 -226 99
-234 105 -303 207 -86 130 -187 262 -377 496 -188 232 -225 280 -216 280 3 0
48 -7 98 -16 109 -19 268 -14 363 12 144 38 302 157 363 271 49 94 66 165 66
283 0 225 -108 455 -326 693 -102 111 -221 214 -558 477 -351 275 -593 473
-905 741 -413 355 -820 729 -829 762 -10 36 -7 481 4 652 80 1237 511 2488
1252 3639 l109 170 3 230 c3 243 13 322 62 515 37 140 87 268 174 446 96 194
205 369 428 688 221 315 271 393 332 517 111 222 137 359 150 775 8 270 25
455 41 455 12 0 138 -127 205 -205 32 -39 120 -151 194 -249 258 -345 424
-484 668 -566 350 -116 814 -57 1257 160 134 65 272 147 263 155 -2 2 -26 -2
-53 -11 -28 -8 -108 -26 -180 -39 -443 -82 -842 -48 -1195 101 -58 24 -118 44
-134 44 -25 0 -111 34 -126 50 -3 3 -16 13 -31 22 -14 9 -50 39 -80 66 -48 44
-55 55 -51 81 2 17 7 29 11 29 3 -1 17 4 30 11 19 10 52 12 140 7 132 -8 305
5 472 35 63 11 173 29 244 39 129 20 350 72 475 112 336 107 638 283 917 535
144 130 205 173 368 257 129 68 144 80 152 131 l6 38 -46 -6 c-76 -11 -136
-49 -262 -167 -228 -213 -597 -472 -850 -595 -217 -107 -381 -159 -675 -219
-554 -111 -918 -98 -1235 44 -82 37 -152 82 -294 188 -131 98 -252 164 -334
182 l-57 13 0 282 0 282 52 69 c29 38 87 104 129 147 l76 77 -38 31 c-56 44
-134 152 -184 254 -76 155 -112 316 -140 615 -15 158 -30 623 -19 589 4 -13
27 6 93 73 l87 91 -13 51 c-23 90 -10 194 38 288 28 55 103 134 165 174 58 37
158 74 206 75 31 1 32 1 8 9 -19 6 -9 8 38 9 45 1 61 -2 56 -10 -5 -9 3 -10
30 -5 24 5 36 3 36 -4 0 -6 5 -8 10 -5 6 3 16 3 23 -2 6 -4 19 -8 27 -10 26
-4 90 -36 90 -45 0 -5 4 -7 8 -4 9 5 82 -40 82 -51 0 -3 -8 1 -17 8 -10 8 1
-7 24 -33 50 -56 89 -130 104 -197 l10 -49 63 -11 c78 -14 79 -14 70 1 -4 7
-3 8 5 4 6 -4 9 -12 6 -17 -4 -5 -2 -9 3 -9 18 0 101 -176 142 -297 44 -132
75 -290 85 -433 l7 -95 -102 -150 c-56 -82 -109 -158 -118 -167 -20 -24 -18
-23 86 16 111 43 309 92 422 106 247 30 491 -5 713 -100 50 -22 92 -38 94 -37
5 6 -158 329 -187 371 -33 49 -38 69 -49 204 -15 165 10 362 59 478 17 38 24
43 116 81 55 23 126 49 159 58 33 9 65 22 72 29 21 20 273 458 268 466 -2 4
26 17 63 29 390 123 828 -77 1061 -483 132 -231 189 -452 198 -768 13 -452
-79 -764 -295 -999 l-49 -53 64 -22 c77 -27 156 -76 183 -115 12 -15 29 -52
40 -81 10 -29 28 -80 40 -113 28 -76 24 -181 -13 -335 -14 -58 -33 -156 -41
-219 -17 -126 -19 -129 -101 -218 -60 -67 -63 -79 -9 -38 l33 25 15 -22 c26
-40 101 -207 179 -398 101 -250 159 -373 409 -870 118 -234 244 -499 282 -590
165 -401 303 -886 371 -1300 l18 -104 83 -91 c303 -328 569 -742 753 -1173
401 -937 502 -2093 316 -3620 -14 -114 -28 -221 -31 -238 l-6 -31 109 -17 c59
-9 113 -19 119 -21 8 -2 6 -24 -7 -72 -47 -169 -61 -431 -33 -622 37 -252 130
-423 293 -539 74 -52 91 -67 91 -79 1 -16 156 -143 175 -143 7 0 26 -11 42
-23 34 -28 167 -57 263 -57 93 0 241 28 265 49 11 10 37 24 58 31 21 7 41 18
44 26 8 21 109 78 214 119 476 188 937 630 1075 1031 18 54 37 100 42 103 5 3
29 42 53 86 135 244 221 509 271 830 19 122 22 182 22 460 1 331 -3 389 -50
715 -123 857 -466 1954 -859 2749 -224 453 -411 722 -800 1151 -459 507 -520
582 -781 970 -101 151 -202 300 -222 330 -45 65 -127 237 -344 719 -195 436
-369 790 -479 976 l-83 140 -33 380 c-47 553 -61 791 -73 1245 -19 806 -36
1050 -95 1406 -120 717 -430 1356 -928 1906 -548 605 -1320 975 -2192 1048
-110 9 -427 11 -535 3z m3077 -6536 c60 -40 155 -97 212 -127 127 -68 172
-105 205 -172 43 -85 31 -185 -28 -254 -43 -49 -86 -50 -156 -3 -67 44 -136
137 -207 274 -31 61 -67 127 -80 149 -38 60 -93 173 -93 190 0 31 41 15 147
-57z"/>
<path d="M10789 18386 c-127 -37 -260 -147 -326 -271 -104 -197 -122 -491 -43
-707 39 -105 110 -211 164 -243 23 -13 98 -50 166 -82 107 -49 135 -57 197
-61 250 -14 483 196 543 490 79 378 -103 747 -423 858 -77 27 -213 35 -278 16z"/>
<path d="M8133 18330 c-132 -27 -226 -141 -270 -330 -14 -57 -18 -117 -18
-255 0 -171 2 -184 28 -259 39 -110 97 -206 179 -292 71 -74 139 -125 195
-145 30 -10 35 -7 105 52 40 34 125 96 188 137 63 41 120 82 127 89 21 26 36
175 30 304 -15 355 -201 646 -445 698 -59 12 -60 12 -119 1z"/>
<path d="M9730 17304 c-24 -10 -60 -46 -60 -61 0 -10 35 -13 165 -13 109 0
165 4 165 11 0 5 -26 22 -57 36 -56 26 -177 41 -213 27z"/>
</g>
</svg>
